<svg xmlns="http://www.w3.org/2000/svg" width="71" height="11" viewBox="0 0 71 11">
  <path fill="#FEFEFE" fill-rule="evenodd" d="M159.848,43.748 C159.308,44 158.444,44.18 157.526,44.18 C154.736,44.18 152.702,42.254 152.702,39.5 C152.702,36.746 154.736,34.82 157.526,34.82 C158.444,34.82 159.308,35 159.848,35.252 L159.848,37.25 C159.272,36.89 158.408,36.656 157.652,36.656 C155.888,36.656 154.7,37.7 154.7,39.5 C154.7,41.3 155.888,42.344 157.652,42.344 C158.408,42.344 159.272,42.11 159.848,41.75 L159.848,43.748 Z M171.612,39.5 C171.612,42.11 169.56,44.18 166.896,44.18 C164.232,44.18 162.18,42.11 162.18,39.5 C162.18,36.89 164.232,34.82 166.896,34.82 C169.56,34.82 171.612,36.89 171.612,39.5 Z M164.178,39.5 C164.178,41.102 165.294,42.344 166.896,42.344 C168.48,42.344 169.596,41.102 169.596,39.5 C169.596,37.898 168.48,36.656 166.896,36.656 C165.294,36.656 164.178,37.898 164.178,39.5 Z M186.076,44 L186.076,38.978 C186.076,37.574 185.482,36.638 184.276,36.638 C183.34,36.638 182.602,37.214 182.278,38.06 C182.314,38.258 182.332,38.438 182.332,38.636 L182.332,44 L180.352,44 L180.352,38.978 C180.352,37.574 179.74,36.638 178.534,36.638 C177.652,36.638 176.914,37.16 176.59,37.916 L176.59,44 L174.61,44 L174.61,35 L176.59,35 L176.59,35.846 C177.13,35.162 178.084,34.82 178.984,34.82 C180.064,34.82 180.982,35.306 181.576,36.152 C182.206,35.288 183.322,34.82 184.546,34.82 C186.868,34.82 188.056,36.422 188.056,38.636 L188.056,44 L186.076,44 Z M199.424,35 L199.424,44 L197.444,44 L197.444,43.064 C196.832,43.82 195.86,44.18 194.96,44.18 C192.836,44.18 191.468,42.704 191.468,40.382 L191.468,35 L193.448,35 L193.448,40.058 C193.448,41.48 194.132,42.38 195.392,42.38 C196.292,42.38 197.048,41.804 197.444,40.958 L197.444,35 L199.424,35 Z M203.088,44 L203.088,35 L205.068,35 L205.068,35.954 C205.68,35.198 206.652,34.82 207.714,34.82 C209.874,34.82 211.242,36.296 211.242,38.618 L211.242,44 L209.262,44 L209.262,38.942 C209.262,37.52 208.542,36.62 207.282,36.62 C206.22,36.62 205.446,37.214 205.068,38.042 L205.068,44 L203.088,44 Z M214.168,39.5 C214.168,36.566 216.076,34.82 218.65,34.82 C221.188,34.82 222.988,36.674 222.898,39.968 L216.238,39.968 C216.328,41.786 217.768,42.398 219.226,42.398 C220.288,42.398 221.152,42.182 222.106,41.624 L222.106,43.55 C221.206,43.982 220.288,44.18 219.01,44.18 C216.364,44.18 214.168,42.632 214.168,39.5 Z M218.632,36.44 C217.606,36.44 216.508,37.052 216.274,38.546 L220.81,38.546 C220.648,37.178 219.802,36.44 218.632,36.44 Z" transform="translate(-152 -34)"/>
</svg>
