<?xml version="1.0" standalone="no"?>
<!DOCTYPE svg PUBLIC "-//W3C//DTD SVG 1.1//EN" "http://www.w3.org/Graphics/SVG/1.1/DTD/svg11.dtd" >
<svg xmlns="http://www.w3.org/2000/svg" xmlns:xlink="http://www.w3.org/1999/xlink" version="1.1">
<metadata>
Created by Christoph Koeberlin (http://christoph.koe.berlin)
Copyright (c) 2018 Swiss Typefaces Sarl. All rights reserved.
</metadata>
<defs>
<font id="Font" horiz-adv-x="0" >
  <font-face 
    font-family="Font"
    font-weight="400"
    font-stretch="normal"
    units-per-em="1000"
    panose-1="2 11 5 4 0 0 0 0 0 0"
    ascent="800"
    descent="-200"
    x-height="500"
    cap-height="710"
    bbox="-361 -273 1100 993"
    underline-thickness="75"
    underline-position="-170"
    unicode-range="U+0020-FB02"
  />
<missing-glyph horiz-adv-x="682" 
d="M91 710h500v-710h-500v710zM110 682v-654l220 327zM572 28v654l-221 -327zM125 691l216 -321l216 321h-432zM125 19h432l-216 320z" />
    <glyph glyph-name=".notdef" horiz-adv-x="682" 
d="M91 710h500v-710h-500v710zM110 682v-654l220 327zM572 28v654l-221 -327zM125 691l216 -321l216 321h-432zM125 19h432l-216 320z" />
    <glyph glyph-name="glyph1" 
 />
    <glyph glyph-name="glyph2" horiz-adv-x="241" 
 />
    <glyph glyph-name="space" unicode=" " horiz-adv-x="241" 
 />
    <glyph glyph-name="exclam" unicode="!" horiz-adv-x="271" 
d="M92 426v284h87v-284l-17 -204h-53zM135 -8q-31 0 -52.5 22t-21.5 53q0 30 21.5 52.5t52.5 22.5t52.5 -22.5t21.5 -52.5q0 -31 -21.5 -53t-52.5 -22z" />
    <glyph glyph-name="quotedbl" unicode="&#x22;" horiz-adv-x="413" 
d="M66 710h78v-247h-78v247zM268 710h78v-247h-78v247z" />
    <glyph glyph-name="numbersign" unicode="#" horiz-adv-x="737" 
d="M409 200h-181l-61 -200h-80l62 200h-116v73h139l54 171h-120v73h143l60 193h79l-60 -193h180l61 193h78l-60 -193h116v-73h-139l-53 -171h120v-73h-144l-61 -200h-79zM252 273h180l53 171h-180z" />
    <glyph glyph-name="dollar" unicode="$" horiz-adv-x="509" 
d="M232 -10q-51 2 -97 16t-77 33v95q13 -11 32.5 -21.5t42.5 -18.5t48.5 -14t50.5 -7v252l-32 12q-83 31 -119 82.5t-36 120.5q0 42 15 74t40.5 54.5t59.5 35t72 16.5v78h54v-77q41 -2 75 -12.5t58 -24.5v-92q-17 14 -51.5 28.5t-81.5 17.5v-237l24 -9q82 -30 122.5 -81
t40.5 -127q0 -44 -13.5 -78t-38.5 -58t-59 -38t-76 -18v-80h-54v78zM388 179q0 49 -26 77t-76 48v-228q48 8 75 35.5t27 67.5zM131 539q0 -40 23 -68t78 -50v215q-45 -7 -73 -31t-28 -66z" />
    <glyph glyph-name="percent" unicode="%" horiz-adv-x="991" 
d="M224 0l450 710h93l-450 -710h-93zM762 -8q-41 0 -77 15.5t-62.5 42.5t-42 62.5t-15.5 76.5t15.5 77t42 62.5t62.5 42t77 15.5q40 0 76 -15.5t63 -42t42.5 -62.5t15.5 -77t-15.5 -76.5t-42.5 -62.5t-63 -42.5t-76 -15.5zM762 70q24 0 45.5 9.5t37.5 26t25.5 38t9.5 45.5
t-9.5 45.5t-25.5 38t-37.5 26t-45.5 9.5q-25 0 -46.5 -9.5t-37.5 -26t-25 -38t-9 -45.5t9 -45.5t25 -38t37.5 -26t46.5 -9.5zM229 324q-41 0 -77 15.5t-62.5 42.5t-42 62.5t-15.5 76.5t15.5 77t42 62.5t62.5 42t77 15.5q40 0 76 -15.5t63 -42t42.5 -62.5t15.5 -77
t-15.5 -76.5t-42.5 -62.5t-63 -42.5t-76 -15.5zM229 402q24 0 45.5 9.5t37.5 26t25.5 38t9.5 45.5t-9.5 45.5t-25.5 38t-37.5 26t-45.5 9.5q-25 0 -46.5 -9.5t-37.5 -26t-25 -38t-9 -45.5t9 -45.5t25 -38t37.5 -26t46.5 -9.5z" />
    <glyph glyph-name="ampersand" unicode="&#x26;" horiz-adv-x="737" 
d="M277 -10q-47 0 -86 15.5t-67 42.5t-43 64.5t-15 81.5q0 39 13 69.5t34 54.5t48 43.5t56 35.5l5 3q-16 15 -31.5 32.5t-28 37.5t-20 42.5t-7.5 48.5q0 36 14 65.5t38.5 50.5t57.5 33t71 12q39 0 71.5 -13t56 -35.5t36 -52.5t12.5 -64q0 -33 -12 -59.5t-31.5 -47.5t-44 -38
t-50.5 -30l158 -153l119 134v-117l-63 -72l179 -174h-114l-119 115q-30 -32 -57.5 -55.5t-56 -39t-58.5 -23t-65 -7.5zM281 68q48 0 89 24.5t88 76.5l-179 175l-14 -7q-52 -28 -82.5 -60.5t-30.5 -83.5q0 -30 11 -53t29 -39t41 -24.5t48 -8.5zM219 559q0 -36 22.5 -63
t57.5 -60l5 3q21 11 39.5 22t32.5 24.5t22 29.5t8 36q0 42 -25 69t-67 27q-38 0 -66.5 -23.5t-28.5 -64.5z" />
    <glyph glyph-name="quotesingle" unicode="'" horiz-adv-x="211" 
d="M66 710h78v-247h-78v247z" />
    <glyph glyph-name="parenleft" unicode="(" horiz-adv-x="285" 
d="M210 -160q-81 100 -123 219t-42 261t42 261t123 219h57q-40 -59 -66.5 -118t-42.5 -119t-22.5 -121t-6.5 -122q0 -62 6.5 -122.5t22.5 -120.5t42.5 -119t66.5 -118h-57z" />
    <glyph glyph-name="parenright" unicode=")" horiz-adv-x="286" 
d="M19 -160q40 59 66.5 118t42.5 119t22.5 120.5t6.5 122.5q0 61 -6.5 122t-22.5 121t-42.5 119t-66.5 118h57q81 -100 123 -219t42 -261t-42 -261t-123 -219h-57z" />
    <glyph glyph-name="asterisk" unicode="*" horiz-adv-x="440" 
d="M88 411l77 107l-126 42l19 64l128 -42v128h67v-128l127 41l21 -63l-127 -42l79 -107l-54 -39l-79 107l-78 -107z" />
    <glyph glyph-name="plus" unicode="+" horiz-adv-x="500" 
d="M38 328h173v172h78v-172h172v-77h-172v-172h-78v172h-173v77z" />
    <glyph glyph-name="comma" unicode="," horiz-adv-x="249" 
d="M73 124h115l-88 -267h-50z" />
    <glyph glyph-name="hyphen" unicode="-" horiz-adv-x="386" 
d="M65 323h255v-86h-255v86z" />
    <glyph glyph-name="period" unicode="." horiz-adv-x="252" 
d="M126 -8q-31 0 -52.5 22t-21.5 53q0 30 21.5 52.5t52.5 22.5t52.5 -22.5t21.5 -52.5q0 -31 -21.5 -53t-52.5 -22z" />
    <glyph glyph-name="slash" unicode="/" horiz-adv-x="509" 
d="M407 710h81l-386 -820h-81z" />
    <glyph glyph-name="zero" unicode="0" horiz-adv-x="609" 
d="M305 -10q-62 0 -109 26.5t-78.5 74.5t-48 115.5t-16.5 149.5t16.5 149.5t48 115.5t78.5 74.5t109 26.5q61 0 108 -26.5t78.5 -74.5t48 -115.5t16.5 -149.5t-16.5 -149.5t-48 -115.5t-78.5 -74.5t-108 -26.5zM305 74q43 0 74 20.5t51.5 58t30 89.5t9.5 114t-9.5 114
t-30 89.5t-51.5 58t-74 20.5q-44 0 -75 -20.5t-51.5 -58t-30 -89.5t-9.5 -114t9.5 -114t30 -89.5t51.5 -58t75 -20.5z" />
    <glyph glyph-name="one" unicode="1" horiz-adv-x="373" 
d="M193 582l-170 -95v93l256 143v-723h-86v582z" />
    <glyph glyph-name="two" unicode="2" horiz-adv-x="532" 
d="M286 316q18 21 36 43t32.5 46t23.5 51t9 57q0 25 -9 48t-26 39.5t-42 26.5t-58 10q-29 0 -57 -7.5t-53.5 -18.5t-46 -23.5t-34.5 -22.5v94q32 22 83 42.5t114 20.5q52 0 92.5 -16t68.5 -44t42 -66t14 -81q0 -39 -7.5 -70t-24 -60.5t-41.5 -62t-61 -74.5l-142 -165h284
v-83h-467z" />
    <glyph glyph-name="three" unicode="3" horiz-adv-x="534" 
d="M47 127q29 -23 81 -38.5t105 -15.5q38 0 68.5 11t51.5 30.5t32.5 46t11.5 58.5q0 67 -43.5 102t-117.5 35h-94l179 270h-265v84h415l-185 -276q45 -5 81.5 -22.5t62.5 -45.5t40.5 -65t14.5 -81q0 -49 -17 -91t-49.5 -73t-78.5 -48.5t-104 -17.5q-68 0 -114.5 13t-74.5 30
v94z" />
    <glyph glyph-name="four" unicode="4" horiz-adv-x="612" 
d="M388 0v197h-380l307 513h98l-259 -432h234v175h85v-175h117v-81h-117v-197h-85z" />
    <glyph glyph-name="five" unicode="5" horiz-adv-x="543" 
d="M253 -10q-50 0 -100.5 9.5t-90.5 35.5v91q29 -23 79 -38t106 -15q40 0 71.5 12t52.5 32.5t32 48.5t11 60q0 31 -11 57.5t-31.5 46t-49.5 30t-64 10.5q-23 0 -44 -3.5t-45 -11.5t-52.5 -21.5t-67.5 -34.5l69 411h338v-84h-263l-35 -199q22 9 52 17t65 8q51 0 92.5 -17.5
t71.5 -49t46.5 -75t16.5 -94.5q0 -47 -17 -88.5t-49 -72t-78.5 -48t-104.5 -17.5z" />
    <glyph glyph-name="six" unicode="6" horiz-adv-x="568" 
d="M297 -10q-63 0 -109.5 24.5t-76.5 65.5t-45 94.5t-15 112.5q0 96 23 175t66.5 135.5t106.5 87.5t143 31q28 0 46 -2.5t39 -7.5v-84q-18 6 -38.5 9.5t-47.5 3.5q-53 0 -94.5 -21.5t-72 -56t-49.5 -79t-25 -89.5q24 29 67 48.5t93 19.5q49 0 90 -19.5t70 -52t45 -74.5
t16 -88q0 -48 -17 -90.5t-47.5 -74t-73 -50t-94.5 -18.5zM294 377q-45 0 -87.5 -26t-67.5 -71q-3 -54 10 -93.5t35.5 -65t51.5 -37.5t58 -12q34 0 61 12t46 32.5t29.5 48t10.5 59.5q0 31 -10.5 59t-29.5 49t-46.5 33t-60.5 12z" />
    <glyph glyph-name="seven" unicode="7" horiz-adv-x="514" 
d="M379 626h-348v84h483l-356 -710h-94z" />
    <glyph glyph-name="eight" unicode="8" horiz-adv-x="572" 
d="M287 -10q-51 0 -95 15t-76 42.5t-50 65.5t-18 83q0 38 10 68.5t28 54t42.5 40t52.5 26.5q-46 27 -70.5 66.5t-24.5 91.5q0 40 15 73.5t42 56.5t63.5 36t80.5 13q45 0 82 -13.5t63 -37.5t40 -58t14 -74q0 -103 -95 -152q64 -28 99 -74t35 -120q0 -44 -17.5 -81t-49 -64
t-75.5 -42.5t-96 -15.5zM135 207q0 -60 41.5 -96.5t110.5 -36.5t110 35t41 92q0 34 -13.5 57t-36 39t-50.5 27t-57 21l-11 3q-58 -14 -96.5 -48.5t-38.5 -92.5zM401 536q0 45 -30 74.5t-84 29.5q-51 0 -83.5 -27.5t-32.5 -71.5q0 -29 11.5 -48t30 -32.5t41.5 -23t47 -18.5
q52 12 76 45.5t24 71.5z" />
    <glyph glyph-name="nine" unicode="9" horiz-adv-x="568" 
d="M178 -4q-28 0 -46 2.5t-39 7.5v83q18 -5 38.5 -8.5t47.5 -3.5q52 0 94 21.5t72.5 56t49.5 79t25 89.5q-24 -30 -67 -49t-93 -19t-90.5 19.5t-69.5 51.5t-45 74.5t-16 88.5q0 48 17 90.5t47.5 74t73 50t94.5 18.5q63 0 109.5 -24.5t76.5 -65.5t45 -94.5t15 -112.5
q0 -96 -23 -175.5t-66.5 -135.5t-106.5 -87t-143 -31zM274 335q45 0 87.5 26t66.5 71q3 54 -10 93.5t-35.5 65t-51.5 37.5t-57 12q-34 0 -61 -12t-46 -32.5t-29.5 -48t-10.5 -59.5t10.5 -59.5t29.5 -48.5t46.5 -33t60.5 -12z" />
    <glyph glyph-name="colon" unicode=":" horiz-adv-x="274" 
d="M137 362q-31 0 -52.5 22t-21.5 53q0 30 21.5 52.5t52.5 22.5t52.5 -22.5t21.5 -52.5q0 -31 -21.5 -53t-52.5 -22zM137 -8q-31 0 -52.5 22t-21.5 53q0 30 21.5 52.5t52.5 22.5t52.5 -22.5t21.5 -52.5q0 -31 -21.5 -53t-52.5 -22z" />
    <glyph glyph-name="semicolon" unicode=";" horiz-adv-x="276" 
d="M84 124h115l-88 -267h-50zM143 362q-31 0 -52.5 22t-21.5 53q0 30 21.5 52.5t52.5 22.5t52.5 -22.5t21.5 -52.5q0 -31 -21.5 -53t-52.5 -22z" />
    <glyph glyph-name="equal" unicode="=" horiz-adv-x="560" 
d="M68 219h424v-76h-424v76zM68 437h424v-77h-424v77z" />
    <glyph glyph-name="question" unicode="?" horiz-adv-x="471" 
d="M146 254q0 21 9.5 40.5t23.5 36.5t31 31.5t31 25.5q21 15 40.5 29t34.5 30t24 34.5t9 43.5q0 23 -8 43.5t-25.5 36t-44 24.5t-63.5 9q-49 0 -94.5 -14t-78.5 -38v94q33 19 78 30.5t102 11.5q55 0 96 -15.5t68.5 -41.5t41.5 -61.5t14 -75.5q0 -39 -12.5 -68.5t-31.5 -52
t-41 -40t-41 -30.5q-13 -9 -26.5 -19.5t-25 -22.5t-18.5 -25t-7 -27v-7h-86v18zM188 -8q-31 0 -52.5 22t-21.5 53q0 30 21.5 52.5t52.5 22.5t52.5 -22.5t21.5 -52.5q0 -31 -21.5 -53t-52.5 -22z" />
    <glyph glyph-name="at" unicode="@" horiz-adv-x="812" 
d="M393 -10q-81 0 -145 27t-108.5 74t-68.5 110.5t-24 135.5q0 85 32 156t85.5 122t124 79t147.5 28q72 0 134 -22.5t108 -63.5t72 -99.5t26 -130.5q0 -65 -15 -111.5t-40 -76.5t-57 -44.5t-66 -14.5q-47 0 -71 18.5t-34 41.5q-19 -26 -55 -42.5t-73 -16.5q-32 0 -60 12
t-49 34t-33 54t-12 73q0 47 16 87t43.5 69t64 45.5t78.5 16.5q26 0 46 -7.5t34 -18t23 -22t13 -19.5l11 58h76l-50 -238q-7 -33 -0.5 -56t39.5 -23q45 0 73 44.5t28 138.5q0 57 -20.5 103t-57 78.5t-86 50t-107.5 17.5q-63 0 -120 -22.5t-101 -64t-70 -101t-26 -132.5
q0 -62 19 -113.5t54.5 -89t86.5 -58.5t115 -21q51 0 97.5 7.5t87.5 27.5v-71q-43 -16 -89 -22.5t-96 -6.5zM376 228q35 0 64 18.5t46 47.5l25 113q-8 27 -32.5 51.5t-64.5 24.5q-46 0 -81.5 -32.5t-44.5 -81.5q-5 -30 -1 -56t15.5 -44.5t30.5 -29.5t43 -11z" />
    <glyph glyph-name="A" unicode="A" horiz-adv-x="697" 
d="M184 185l-90 -185h-97l351 722l351 -722h-96l-90 185h-329zM348 527l-123 -258h247z" />
    <glyph glyph-name="B" unicode="B" horiz-adv-x="626" 
d="M94 710h204q50 0 89.5 -15.5t67 -41t42 -59t14.5 -69.5q0 -43 -15 -78t-48 -61q63 -18 100.5 -65t37.5 -116q0 -44 -17 -81t-48 -65t-75 -43.5t-98 -15.5h-254v710zM352 84q72 0 107.5 33.5t35.5 86.5q0 52 -35.5 86.5t-106.5 34.5h-166v-241h165zM300 405q57 0 88.5 31
t31.5 79q0 22 -8 42.5t-23.5 35.5t-38 24t-50.5 9h-113v-221h113z" />
    <glyph glyph-name="C" unicode="C" horiz-adv-x="633" 
d="M426 -12q-83 0 -152.5 28.5t-120.5 78t-79.5 116.5t-28.5 144t28.5 144t79.5 116.5t120.5 78t152.5 28.5q57 0 96 -8.5t71 -22.5v-96q-32 17 -71.5 28t-94.5 11q-65 0 -118 -21.5t-91 -59.5t-58.5 -89t-20.5 -109q0 -59 20.5 -109.5t58.5 -88.5t91 -59.5t118 -21.5
q55 0 94.5 11t71.5 28v-96q-32 -14 -71 -22.5t-96 -8.5z" />
    <glyph glyph-name="D" unicode="D" horiz-adv-x="721" 
d="M94 710h204q82 0 151 -27t119.5 -74.5t79 -112.5t28.5 -141t-28.5 -141t-79 -112.5t-119.5 -74.5t-151 -27h-204v710zM298 87q64 0 116.5 20t89.5 56t57.5 85t20.5 107t-20.5 107t-57.5 85t-89.5 56t-116.5 20h-111v-536h111z" />
    <glyph glyph-name="E" unicode="E" horiz-adv-x="553" 
d="M94 710h414v-88h-321v-215h227v-88h-227v-231h321v-88h-414v710z" />
    <glyph glyph-name="F" unicode="F" horiz-adv-x="531" 
d="M94 710h413v-88h-320v-215h238v-88h-238v-319h-93v710z" />
    <glyph glyph-name="G" unicode="G" horiz-adv-x="706" 
d="M424 -12q-86 0 -155.5 29t-119.5 79t-77 116.5t-27 142.5q0 77 28.5 144t79 116.5t120 78t152.5 28.5q57 0 96 -8.5t72 -22.5v-96q-32 17 -72 28t-94 11q-65 0 -118.5 -21.5t-91.5 -59.5t-58.5 -89t-20.5 -109q0 -59 20 -109.5t57 -88.5t90.5 -59.5t121.5 -21.5
q42 0 71.5 5t60.5 17v221h-224v87h315v-365q-46 -28 -103 -40.5t-123 -12.5z" />
    <glyph glyph-name="H" unicode="H" horiz-adv-x="763" 
d="M94 710h93v-303h389v303h93v-710h-93v320h-389v-320h-93v710z" />
    <glyph glyph-name="I" unicode="I" horiz-adv-x="281" 
d="M94 710h93v-710h-93v710z" />
    <glyph glyph-name="J" unicode="J" horiz-adv-x="426" 
d="M134 -12q-35 0 -62.5 4t-52.5 10v94q51 -22 107 -22q54 0 87 31t33 106v499h92v-508q0 -56 -15.5 -96.5t-43 -66.5t-65 -38.5t-80.5 -12.5z" />
    <glyph glyph-name="K" unicode="K" horiz-adv-x="671" 
d="M196 366l308 344h112l-303 -337l381 -373h-125zM94 710h92v-710h-92v710z" />
    <glyph glyph-name="L" unicode="L" horiz-adv-x="548" 
d="M94 710h93v-622h343v-88h-436v710z" />
    <glyph glyph-name="M" unicode="M" horiz-adv-x="875" 
d="M94 722l344 -389l343 389v-722h-93v486l-250 -287l-251 287v-486h-93v722z" />
    <glyph glyph-name="N" unicode="N" horiz-adv-x="787" 
d="M187 502v-502h-93v722l506 -514v502h93v-722z" />
    <glyph glyph-name="O" unicode="O" horiz-adv-x="825" 
d="M412 76q58 0 108.5 21.5t87 59.5t57.5 88.5t21 109.5q0 58 -21 109t-57.5 89t-87 59.5t-108.5 21.5t-108 -21.5t-86.5 -59.5t-57.5 -89t-21 -109q0 -59 21 -109.5t57.5 -88.5t86.5 -59.5t108 -21.5zM412 -12q-77 0 -143.5 28.5t-116.5 78t-78.5 116.5t-28.5 144t28.5 144
t78.5 116.5t116.5 78t143.5 28.5t144 -28.5t116.5 -78t78 -116.5t28.5 -144t-28.5 -144t-78 -116.5t-116.5 -78t-144 -28.5z" />
    <glyph glyph-name="P" unicode="P" horiz-adv-x="597" 
d="M567 499q0 -44 -16 -82.5t-46.5 -67t-73.5 -44.5t-97 -16h-147v-289h-93v710h240q54 0 97 -16.5t73.5 -45t46.5 -67t16 -82.5zM475 499q0 52 -35.5 88t-106.5 36h-146v-248h146q71 0 106.5 36t35.5 88z" />
    <glyph glyph-name="Q" unicode="Q" horiz-adv-x="834" 
d="M412 -12q-77 0 -143.5 28.5t-116.5 78t-78.5 116.5t-28.5 144t28.5 144t78.5 116.5t116.5 78t143.5 28.5t144 -28.5t116.5 -78t78 -116.5t28.5 -144q0 -68 -22 -127t-60 -107l90 -83v-116l-152 140q-46 -35 -103 -54.5t-120 -19.5zM412 76q89 0 157 48l-113 105l57 64
l117 -109q26 35 41 78.5t15 92.5q0 58 -21 109t-57.5 89t-87 59.5t-108.5 21.5t-108 -21.5t-86.5 -59.5t-57.5 -89t-21 -109q0 -59 21 -109.5t57.5 -88.5t86.5 -59.5t108 -21.5z" />
    <glyph glyph-name="R" unicode="R" horiz-adv-x="626" 
d="M94 710h222q99 0 155 -53.5t57 -141.5q0 -44 -15.5 -79.5t-43.5 -61t-68 -39t-89 -13.5h-2l336 -322h-119l-340 324v-324h-93v710zM305 406q61 0 95.5 27.5t34.5 81.5t-34.5 81.5t-95.5 27.5h-118v-218h118z" />
    <glyph glyph-name="S" unicode="S" horiz-adv-x="540" 
d="M257 -12q-60 0 -112.5 13t-87.5 39v104q15 -15 38.5 -27.5t51 -22t57.5 -14.5t58 -5q65 0 104.5 26.5t39.5 76.5q0 42 -23 72.5t-73 48.5l-97 36q-84 30 -119.5 79.5t-35.5 121.5q0 44 17.5 78.5t48.5 58.5t74.5 36.5t96.5 12.5q57 0 97 -10.5t62 -21.5v-94
q-32 17 -74 28t-84 11q-31 0 -57.5 -6.5t-46 -19t-30.5 -30.5t-11 -40q0 -45 22.5 -71t74.5 -45l88 -33q85 -30 124.5 -80.5t38.5 -128.5q0 -47 -17.5 -82.5t-49 -60.5t-76.5 -37.5t-99 -12.5z" />
    <glyph glyph-name="T" unicode="T" horiz-adv-x="567" 
d="M238 622h-221v88h533v-88h-221v-622h-91v622z" />
    <glyph glyph-name="U" unicode="U" horiz-adv-x="726" 
d="M363 -12q-62 0 -113 20t-87.5 57.5t-57 91t-20.5 119.5v434h93v-436q0 -96 50.5 -147t134.5 -51t134.5 51t50.5 147v436h93v-434q0 -66 -20.5 -119.5t-57 -91t-88 -57.5t-112.5 -20z" />
    <glyph glyph-name="V" unicode="V" horiz-adv-x="706" 
d="M-3 710h106l250 -521l251 521h105l-356 -722z" />
    <glyph glyph-name="W" unicode="W" horiz-adv-x="933" 
d="M7 710h98l168 -482l193 494l193 -494l169 482h98l-259 -722l-201 511l-200 -511z" />
    <glyph glyph-name="X" unicode="X" horiz-adv-x="670" 
d="M4 0l274 359l-263 351h111l209 -277l209 277h111l-262 -351l273 -359h-113l-218 284l-217 -284h-114z" />
    <glyph glyph-name="Y" unicode="Y" horiz-adv-x="671" 
d="M289 301l-276 409h111l211 -316l212 316h111l-277 -410v-300h-92v301z" />
    <glyph glyph-name="Z" unicode="Z" horiz-adv-x="591" 
d="M404 622h-352v88h509l-396 -622h397v-88h-554z" />
    <glyph glyph-name="bracketleft" unicode="[" horiz-adv-x="305" 
d="M92 800h187v-72h-109v-816h109v-72h-187v960z" />
    <glyph glyph-name="bracketright" unicode="]" horiz-adv-x="305" 
d="M213 -160h-187v72h109v816h-109v72h187v-960z" />
    <glyph glyph-name="underscore" unicode="_" horiz-adv-x="532" 
d="M54 0h424v-73h-424v73z" />
    <glyph glyph-name="grave" unicode="`" 
d="M26 557l-125 153h109l88 -153h-72z" />
    <glyph glyph-name="a" unicode="a" horiz-adv-x="624" 
d="M294 -10q-56 0 -102.5 20.5t-79.5 56t-51.5 83t-18.5 100.5t18.5 100.5t51.5 83t79.5 56t102.5 20.5q49 0 91 -16.5t72 -48.5v55h86v-500h-86v55q-30 -32 -72 -48.5t-91 -16.5zM301 69q56 0 95 24t61 59v197q-22 35 -61 58.5t-95 23.5q-38 0 -69 -14t-53.5 -39t-35 -58
t-12.5 -70q0 -38 12.5 -70.5t35 -57.5t53.5 -39t69 -14z" />
    <glyph glyph-name="b" unicode="b" horiz-adv-x="624" 
d="M330 -10q-48 0 -90 16.5t-73 48.5v-55h-86v710h86v-265q31 32 73 48.5t90 16.5q56 0 102.5 -20.5t79.5 -56t51.5 -83t18.5 -100.5t-18.5 -100.5t-51.5 -83t-79.5 -56t-102.5 -20.5zM323 69q38 0 69 14t53.5 39t35 57.5t12.5 70.5q0 37 -12.5 70t-35 58t-53.5 39t-69 14
q-56 0 -95 -23.5t-61 -58.5v-197q22 -35 61 -59t95 -24z" />
    <glyph glyph-name="c" unicode="c" horiz-adv-x="477" 
d="M312 -10q-60 0 -109.5 19t-85 53.5t-55.5 82t-20 105.5t20 105.5t55.5 82t85 53.5t109.5 19q34 0 67 -5.5t57 -16.5v-89q-24 14 -56.5 22.5t-65.5 8.5q-84 0 -134 -48t-50 -132t50 -132t134 -48q33 0 65.5 8.5t56.5 22.5v-89q-24 -11 -57 -16.5t-67 -5.5z" />
    <glyph glyph-name="d" unicode="d" horiz-adv-x="624" 
d="M294 -10q-56 0 -102.5 20.5t-79.5 56t-51.5 83t-18.5 100.5t18.5 100.5t51.5 83t79.5 56t102.5 20.5q49 0 91 -16.5t72 -48.5v265h86v-710h-86v55q-30 -32 -72 -48.5t-91 -16.5zM301 69q56 0 95 24t61 59v197q-22 35 -61 58.5t-95 23.5q-38 0 -69 -14t-53.5 -39t-35 -58
t-12.5 -70q0 -38 12.5 -70.5t35 -57.5t53.5 -39t69 -14z" />
    <glyph glyph-name="e" unicode="e" horiz-adv-x="555" 
d="M310 -10q-55 0 -103.5 16.5t-84.5 49t-57.5 81t-21.5 113.5q0 57 17.5 104.5t50 82t77.5 54t101 19.5t99.5 -21t73 -58.5t43.5 -89t11 -112.5h-383q1 -44 17 -74.5t41.5 -50t57.5 -28t66 -8.5q52 0 89 12t68 31v-88q-34 -15 -70 -24t-92 -9zM426 298q-8 64 -44.5 100.5
t-94.5 36.5q-25 0 -49.5 -8t-45.5 -24.5t-36 -42.5t-20 -62h290z" />
    <glyph glyph-name="f" unicode="f" horiz-adv-x="367" 
d="M123 421h-106v79h106v66q0 39 11.5 66.5t32 44.5t48 25t60.5 8h79v-80h-65q-39 0 -59.5 -14t-20.5 -58v-58h145v-79h-145v-421h-86v421z" />
    <glyph glyph-name="g" unicode="g" horiz-adv-x="625" 
d="M302 87q55 0 94.5 23.5t61.5 58.5v180q-22 35 -61.5 58.5t-94.5 23.5q-37 0 -68.5 -13t-54.5 -36t-35.5 -54.5t-12.5 -68.5t13 -68.5t35.5 -54.5t54 -36t68.5 -13zM277 -194q-48 0 -87.5 5t-75.5 18v86q35 -15 74.5 -22.5t87.5 -7.5q36 0 69 10t58 31t40 54t15 79v14
q-30 -33 -72.5 -49t-91.5 -16q-54 0 -100.5 19.5t-80 53t-52 79.5t-18.5 99t19 99t52.5 79.5t79.5 53t100 19.5q49 0 91.5 -16.5t72.5 -48.5v55h86v-445q0 -63 -20.5 -110t-56.5 -78t-84.5 -46t-105.5 -15z" />
    <glyph glyph-name="h" unicode="h" horiz-adv-x="589" 
d="M81 0v710h86v-273q26 38 68 55.5t90 17.5q42 0 77 -14t60 -40.5t39 -64t14 -84.5v-307h-85v294q0 66 -33.5 101.5t-91.5 35.5q-53 0 -88 -27.5t-50 -71.5v-332h-86z" />
    <glyph glyph-name="i" unicode="i" horiz-adv-x="249" 
d="M125 603q-26 0 -44 18t-18 43q0 26 18 43.5t44 17.5t43.5 -17.5t17.5 -43.5q0 -25 -17.5 -43t-43.5 -18zM81 500h86v-500h-86v500z" />
    <glyph glyph-name="j" unicode="j" horiz-adv-x="257" 
d="M89 500h86v-543q0 -39 -11 -65.5t-31 -43.5t-47.5 -24.5t-60.5 -7.5h-45v80h29q39 0 59.5 14.5t20.5 59.5v530zM133 603q-26 0 -44 18t-18 43q0 26 18 43.5t44 17.5t43.5 -17.5t17.5 -43.5q0 -25 -17.5 -43t-43.5 -18z" />
    <glyph glyph-name="k" unicode="k" horiz-adv-x="541" 
d="M81 710h86v-710h-86v710zM172 278l219 222h108l-217 -221l272 -279h-109z" />
    <glyph glyph-name="l" unicode="l" horiz-adv-x="249" 
d="M81 710h86v-710h-86v710z" />
    <glyph glyph-name="m" unicode="m" horiz-adv-x="885" 
d="M725 293q0 64 -30 101t-84 37q-47 0 -78.5 -27t-45.5 -71q1 -7 1.5 -13t0.5 -13v-307h-86v293q0 64 -30 101t-83 37q-45 0 -77 -24.5t-46 -63.5v-343h-86v500h86v-53q26 33 64.5 48t78.5 15q47 0 85 -21.5t61 -60.5q30 44 75 63t93 19q89 0 138 -55.5t49 -147.5v-307h-86
v293z" />
    <glyph glyph-name="n" unicode="n" horiz-adv-x="589" 
d="M81 500h86v-63q26 38 68 55.5t90 17.5q42 0 77 -14t60 -40.5t39 -64t14 -84.5v-307h-85v294q0 66 -33.5 101.5t-91.5 35.5q-53 0 -88 -27.5t-50 -71.5v-332h-86v500z" />
    <glyph glyph-name="o" unicode="o" horiz-adv-x="606" 
d="M303 -10q-57 0 -105 20.5t-83 55.5t-54.5 82.5t-19.5 101.5t19.5 101.5t54.5 82.5t83 55.5t105 20.5q56 0 104 -20.5t83 -55.5t54.5 -82.5t19.5 -101.5t-19.5 -101.5t-54.5 -82.5t-83 -55.5t-104 -20.5zM303 70q39 0 71 14t54.5 38.5t35 57t12.5 70.5q0 37 -12.5 70
t-35 57.5t-54.5 38.5t-71 14t-71 -14t-55 -38.5t-35.5 -57.5t-12.5 -70q0 -38 12.5 -70.5t35.5 -57t55 -38.5t71 -14z" />
    <glyph glyph-name="p" unicode="p" horiz-adv-x="624" 
d="M81 500h86v-55q31 32 73 48.5t90 16.5q56 0 102.5 -20.5t79.5 -56t51.5 -83t18.5 -100.5t-18.5 -100.5t-51.5 -83t-79.5 -56t-102.5 -20.5q-48 0 -90 16.5t-73 48.5v-239h-86v684zM323 69q38 0 69 14t53.5 39t35 57.5t12.5 70.5q0 37 -12.5 70t-35 58t-53.5 39t-69 14
q-56 0 -95 -23.5t-61 -58.5v-197q22 -35 61 -59t95 -24z" />
    <glyph glyph-name="q" unicode="q" horiz-adv-x="624" 
d="M457 55q-30 -32 -72 -48.5t-91 -16.5q-56 0 -102.5 20.5t-79.5 56t-51.5 83t-18.5 100.5t18.5 100.5t51.5 83t79.5 56t102.5 20.5q49 0 91 -16.5t72 -48.5v55h86v-684h-86v239zM301 69q56 0 95 24t61 59v197q-22 35 -61 58.5t-95 23.5q-38 0 -69 -14t-53.5 -39t-35 -58
t-12.5 -70q0 -38 12.5 -70.5t35 -57.5t53.5 -39t69 -14z" />
    <glyph glyph-name="r" unicode="r" horiz-adv-x="365" 
d="M81 500h86v-71q15 32 53 54t88 22h38v-85h-46q-56 0 -87 -24.5t-46 -71.5v-324h-86v500z" />
    <glyph glyph-name="s" unicode="s" horiz-adv-x="440" 
d="M217 -10q-45 0 -88 7.5t-72 22.5v86q12 -8 29 -15t38 -12.5t44 -9t46 -3.5q48 0 75 18t27 50q0 27 -19.5 46t-66.5 33l-53 16q-63 19 -96 53.5t-33 91.5q0 66 52 101t136 35q32 0 66.5 -5.5t57.5 -16.5v-82q-21 14 -56 22t-67 8q-21 0 -40 -3t-33.5 -9.5t-22.5 -18
t-8 -28.5q-1 -26 16 -41.5t60 -29.5l54 -16q69 -20 104 -56t35 -94q0 -74 -48.5 -112t-136.5 -38z" />
    <glyph glyph-name="t" unicode="t" horiz-adv-x="385" 
d="M132 421h-116v79h116v125l86 51v-176h154v-79h-154v-421h-86v421z" />
    <glyph glyph-name="u" unicode="u" horiz-adv-x="579" 
d="M498 0h-86v63q-26 -38 -67.5 -55.5t-83.5 -17.5q-41 0 -75.5 14t-59.5 40.5t-38.5 64t-13.5 84.5v307h86v-294q0 -66 32 -101.5t88 -35.5q48 0 82 27.5t50 71.5v332h86v-500z" />
    <glyph glyph-name="v" unicode="v" horiz-adv-x="540" 
d="M444 500h98l-272 -510l-271 510h98l173 -337z" />
    <glyph glyph-name="w" unicode="w" horiz-adv-x="736" 
d="M4 500h95l124 -314l145 324l145 -323l124 313h95l-210 -510l-154 334l-154 -334z" />
    <glyph glyph-name="x" unicode="x" horiz-adv-x="530" 
d="M265 189l-152 -189h-107l205 253l-188 247h104l138 -181l137 181h105l-189 -247l205 -253h-106z" />
    <glyph glyph-name="y" unicode="y" horiz-adv-x="546" 
d="M228 80l-223 420h97l174 -337l174 337h97l-362 -684h-99z" />
    <glyph glyph-name="z" unicode="z" horiz-adv-x="486" 
d="M308 421h-261v79h411l-292 -421h284v-79h-433z" />
    <glyph glyph-name="braceleft" unicode="{" horiz-adv-x="316" 
d="M230 -160q-71 0 -99 36.5t-28 106.5v230q0 34 -10.5 52.5t-47.5 18.5h-15v72h15q37 0 47.5 17.5t10.5 52.5v231q0 70 27.5 106.5t98.5 36.5h61v-72h-48q-38 0 -49.5 -17.5t-11.5 -55.5v-225q0 -47 -11.5 -71.5t-42.5 -38.5q31 -14 42.5 -39t11.5 -72v-224q0 -39 11.5 -56
t49.5 -17h48v-72h-60z" />
    <glyph glyph-name="bar" unicode="|" horiz-adv-x="262" 
d="M92 710h79v-820h-79v820z" />
    <glyph glyph-name="braceright" unicode="}" horiz-adv-x="316" 
d="M26 -160v72h48q38 0 49.5 17t11.5 56v224q0 47 11.5 72t42.5 39q-31 14 -42.5 38.5t-11.5 71.5v225q0 38 -11.5 55.5t-49.5 17.5h-48v72h61q71 0 98.5 -36.5t27.5 -106.5v-231q0 -35 10.5 -52.5t47.5 -17.5h15v-72h-15q-37 0 -47.5 -18.5t-10.5 -52.5v-230
q0 -70 -28 -106.5t-99 -36.5h-60z" />
    <glyph glyph-name="uni00A0" unicode="&#xa0;" horiz-adv-x="241" 
 />
    <glyph glyph-name="exclamdown" unicode="&#xa1;" horiz-adv-x="258" 
d="M172 83v-267h-86v267l16 203h54zM129 360q-31 0 -52.5 22t-21.5 53q0 30 21.5 52.5t52.5 22.5t52.5 -22.5t21.5 -52.5q0 -31 -21.5 -53t-52.5 -22z" />
    <glyph glyph-name="sterling" unicode="&#xa3;" horiz-adv-x="555" 
d="M54 391h62q-9 32 -15.5 63.5t-6.5 61.5q0 54 19.5 92.5t52 64t75.5 37.5t90 12t84 -8.5t61 -20.5v-91q-23 14 -62 25t-80 11q-27 0 -54 -5.5t-49.5 -19t-36.5 -37t-14 -60.5q0 -31 7.5 -62t17.5 -63h191v-55h-173q10 -31 17 -62t7 -63q0 -26 -6 -49t-16 -43
q37 -10 78.5 -24t91.5 -14q29 0 65 10.5t60 28.5v-91q-12 -9 -27.5 -16t-32.5 -12t-34 -8t-31 -3q-34 0 -65 7.5t-58.5 16t-52.5 16t-48 7.5q-22 0 -52.5 -8.5t-64.5 -38.5v91q23 20 44.5 30t40.5 14q23 35 23 78q0 27 -9 61t-21 72h-78v55z" />
    <glyph glyph-name="yen" unicode="&#xa5;" horiz-adv-x="673" 
d="M86 354h174l-230 356h103l203 -324l203 324h104l-229 -356h173v-54h-207v-75h207v-54h-207v-171h-86v171h-208v54h208v75h-208v54z" />
    <glyph glyph-name="dieresis" unicode="&#xa8;" 
d="M-112 595q-25 0 -42 17t-17 41t17 41t42 17q24 0 41 -17t17 -41t-17 -41t-41 -17zM113 595q-24 0 -41.5 17t-17.5 41t17.5 41t41.5 17t41 -17t17 -41t-17 -41t-41 -17z" />
    <glyph glyph-name="copyright" unicode="&#xa9;" horiz-adv-x="824" 
d="M411 59q61 0 115 23.5t94.5 63.5t64 94t23.5 115t-23.5 115t-64 94t-94.5 63.5t-115 23.5q-60 0 -114 -23.5t-94 -63.5t-63.5 -94t-23.5 -115t23.5 -115t63.5 -94t94 -63.5t114 -23.5zM411 -12q-75 0 -142 29t-116.5 79t-78.5 116.5t-29 142.5t29 142.5t78.5 116.5
t116.5 79t142 29q76 0 143 -29t117 -79t79 -116.5t29 -142.5t-29 -142.5t-79 -116.5t-117 -79t-143 -29zM439 163q-44 0 -81.5 15t-64.5 41t-42 61t-15 75t15 75t42 61.5t64.5 41.5t81.5 15q31 0 53 -5t40 -12v-73q-18 9 -41 15.5t-49 6.5q-32 0 -57 -10t-42.5 -27
t-26.5 -40t-9 -48q0 -26 9 -48.5t26.5 -39t42.5 -26.5t57 -10q26 0 49 6t41 15v-72q-18 -8 -40 -12.5t-53 -4.5z" />
    <glyph glyph-name="guillemotleft" unicode="&#xab;" horiz-adv-x="477" 
d="M425 54l-58 -38l-152 234l152 234l58 -38l-114 -196zM252 54l-58 -38l-152 234l152 234l58 -38l-114 -196z" />
    <glyph glyph-name="uni00AD" unicode="&#xad;" horiz-adv-x="386" 
d="M65 323h255v-86h-255v86z" />
    <glyph glyph-name="macron" unicode="&#xaf;" 
d="M-161 710h322v-69h-322v69z" />
    <glyph glyph-name="degree" unicode="&#xb0;" horiz-adv-x="347" 
d="M174 517q28 0 47.5 19.5t19.5 47.5t-19.5 48t-47.5 20q-29 0 -48.5 -20t-19.5 -48t19.5 -47.5t48.5 -19.5zM174 455q-27 0 -50.5 10t-41.5 27.5t-28 41t-10 50.5t10 50.5t28 41.5t41.5 28t50.5 10t50.5 -10t41 -28t27.5 -41.5t10 -50.5t-10 -50.5t-27.5 -41t-41 -27.5
t-50.5 -10z" />
    <glyph glyph-name="acute" unicode="&#xb4;" 
d="M-11 710h109l-125 -153h-72z" />
    <glyph glyph-name="periodcentered" unicode="&#xb7;" horiz-adv-x="270" 
d="M135 197q-31 0 -52.5 22t-21.5 53q0 30 21.5 52.5t52.5 22.5t52.5 -22.5t21.5 -52.5q0 -31 -21.5 -53t-52.5 -22z" />
    <glyph glyph-name="cedilla" unicode="&#xb8;" 
d="M-17 -194q-21 0 -41 3.5t-40 9.5v54q16 -7 36.5 -10.5t38.5 -3.5q20 0 38.5 6t18.5 22q0 11 -11 16.5t-28 5.5q-14 0 -25 -2.5t-21 -6.5l-31 22l49 81h55l-32 -52q16 7 38 7q32 0 54 -17.5t22 -49.5q0 -41 -33.5 -63t-87.5 -22z" />
    <glyph glyph-name="guillemotright" unicode="&#xbb;" horiz-adv-x="477" 
d="M338 250l-114 196l58 38l152 -234l-152 -234l-58 38zM165 250l-114 196l58 38l152 -234l-152 -234l-58 38z" />
    <glyph glyph-name="questiondown" unicode="&#xbf;" horiz-adv-x="462" 
d="M319 274q0 -21 -9.5 -40.5t-23.5 -36.5t-30.5 -32t-30.5 -25q-21 -15 -40.5 -29t-34.5 -30t-24 -34.5t-9 -43.5q0 -23 8 -43.5t25.5 -36t44 -24.5t63.5 -9q48 0 94 14t78 38v-94q-32 -19 -77 -30.5t-102 -11.5q-55 0 -96 15.5t-68.5 41.5t-41.5 61.5t-14 75.5
q0 39 12.5 68.5t31.5 52t41 39.5t40 31q13 9 27 19.5t25 22.5t18 25t7 27v7h86v-18zM277 360q-31 0 -52.5 22t-21.5 53q0 30 21.5 52.5t52.5 22.5t52.5 -22.5t21.5 -52.5q0 -31 -21.5 -53t-52.5 -22z" />
    <glyph glyph-name="Agrave" unicode="&#xc0;" horiz-adv-x="697" 
d="M184 185l-90 -185h-97l351 722l351 -722h-96l-90 185h-329zM348 527l-123 -258h247zM308 770l-115 159h109l78 -159h-72z" />
    <glyph glyph-name="Aacute" unicode="&#xc1;" horiz-adv-x="697" 
d="M184 185l-90 -185h-97l351 722l351 -722h-96l-90 185h-329zM348 527l-123 -258h247zM392 929h109l-114 -159h-73z" />
    <glyph glyph-name="Acircumflex" unicode="&#xc2;" horiz-adv-x="697" 
d="M184 185l-90 -185h-97l351 722l351 -722h-96l-90 185h-329zM348 527l-123 -258h247zM182 836l166 87l166 -87v-75l-166 87l-166 -87v75z" />
    <glyph glyph-name="Atilde" unicode="&#xc3;" horiz-adv-x="697" 
d="M184 185l-90 -185h-97l351 722l351 -722h-96l-90 185h-329zM348 527l-123 -258h247zM178 804q8 43 37 69t69 26q19 0 37.5 -7t34.5 -15t30.5 -15t26.5 -7q33 0 43 44h66l-4 -19q-8 -42 -36.5 -68t-69.5 -26q-20 0 -38 7t-34 15l-30 15t-26 7q-32 0 -44 -44h-65z" />
    <glyph glyph-name="Adieresis" unicode="&#xc4;" horiz-adv-x="697" 
d="M184 185l-90 -185h-97l351 722l351 -722h-96l-90 185h-329zM348 527l-123 -258h247zM236 785q-25 0 -42 17t-17 41t17 41.5t42 17.5q24 0 41 -17.5t17 -41.5t-17 -41t-41 -17zM461 785q-24 0 -41.5 17t-17.5 41t17.5 41.5t41.5 17.5t41 -17.5t17 -41.5t-17 -41t-41 -17z
" />
    <glyph glyph-name="Aring" unicode="&#xc5;" horiz-adv-x="697" 
d="M184 185l-90 -185h-97l351 722l351 -722h-96l-90 185h-329zM348 527l-123 -258h247zM348 753q-25 0 -47 9.5t-38.5 26t-26 38t-9.5 46.5t9.5 46.5t26 38t38.5 26t47 9.5t47 -9.5t38.5 -26t26.5 -38t10 -46.5t-10 -46.5t-26.5 -38t-38.5 -26t-47 -9.5zM348 804q29 0 50 20
t21 49t-21 49.5t-50 20.5t-49 -20.5t-20 -49.5t20 -49t49 -20z" />
    <glyph glyph-name="AE" unicode="&#xc6;" horiz-adv-x="916" 
d="M457 207h-248l-123 -207h-103l426 710h462v-88h-321v-215h227v-88h-227v-231h321v-88h-414v207zM259 291h198v331z" />
    <glyph glyph-name="Ccedilla" unicode="&#xc7;" horiz-adv-x="633" 
d="M426 -12q-83 0 -152.5 28.5t-120.5 78t-79.5 116.5t-28.5 144t28.5 144t79.5 116.5t120.5 78t152.5 28.5q57 0 96 -8.5t71 -22.5v-96q-32 17 -71.5 28t-94.5 11q-65 0 -118 -21.5t-91 -59.5t-58.5 -89t-20.5 -109q0 -59 20.5 -109.5t58.5 -88.5t91 -59.5t118 -21.5
q55 0 94.5 11t71.5 28v-96q-32 -14 -71 -22.5t-96 -8.5zM397 -194q-19 0 -41 3.5t-41 11.5v54q17 -8 37.5 -12t38.5 -4q20 0 38.5 5.5t18.5 22.5q0 11 -11 16.5t-28 5.5q-14 0 -25 -2.5t-21 -6.5l-31 22l49 81h55l-32 -52q16 7 38 7q32 0 54 -18t22 -49q0 -42 -33.5 -63.5
t-87.5 -21.5z" />
    <glyph glyph-name="Egrave" unicode="&#xc8;" horiz-adv-x="553" 
d="M94 710h414v-88h-321v-215h227v-88h-227v-231h321v-88h-414v710zM261 770l-115 159h109l78 -159h-72z" />
    <glyph glyph-name="Eacute" unicode="&#xc9;" horiz-adv-x="553" 
d="M94 710h414v-88h-321v-215h227v-88h-227v-231h321v-88h-414v710zM345 929h109l-114 -159h-73z" />
    <glyph glyph-name="Ecircumflex" unicode="&#xca;" horiz-adv-x="553" 
d="M94 710h414v-88h-321v-215h227v-88h-227v-231h321v-88h-414v710zM135 836l166 87l166 -87v-75l-166 87l-166 -87v75z" />
    <glyph glyph-name="Edieresis" unicode="&#xcb;" horiz-adv-x="553" 
d="M94 710h414v-88h-321v-215h227v-88h-227v-231h321v-88h-414v710zM189 785q-25 0 -42 17t-17 41t17 41.5t42 17.5q24 0 41 -17.5t17 -41.5t-17 -41t-41 -17zM414 785q-24 0 -41.5 17t-17.5 41t17.5 41.5t41.5 17.5t41 -17.5t17 -41.5t-17 -41t-41 -17z" />
    <glyph glyph-name="Igrave" unicode="&#xcc;" horiz-adv-x="281" 
d="M94 710h93v-710h-93v710zM101 770l-115 159h109l78 -159h-72z" />
    <glyph glyph-name="Iacute" unicode="&#xcd;" horiz-adv-x="281" 
d="M94 710h93v-710h-93v710zM185 929h109l-114 -159h-73z" />
    <glyph glyph-name="Icircumflex" unicode="&#xce;" horiz-adv-x="281" 
d="M94 710h93v-710h-93v710zM-25 836l166 87l166 -87v-75l-166 87l-166 -87v75z" />
    <glyph glyph-name="Idieresis" unicode="&#xcf;" horiz-adv-x="281" 
d="M94 710h93v-710h-93v710zM29 785q-25 0 -42 17t-17 41t17 41.5t42 17.5q24 0 41 -17.5t17 -41.5t-17 -41t-41 -17zM254 785q-24 0 -41.5 17t-17.5 41t17.5 41.5t41.5 17.5t41 -17.5t17 -41.5t-17 -41t-41 -17z" />
    <glyph glyph-name="Eth" unicode="&#xd0;" horiz-adv-x="729" 
d="M102 710h204q82 0 151 -27t119.5 -74.5t79 -112.5t28.5 -141t-28.5 -141t-79 -112.5t-119.5 -74.5t-151 -27h-204v710zM306 87q64 0 116.5 20t89.5 56t57.5 85t20.5 107t-20.5 107t-57.5 85t-89.5 56t-116.5 20h-111v-536h111zM28 401h326v-82h-326v82z" />
    <glyph glyph-name="Ntilde" unicode="&#xd1;" horiz-adv-x="787" 
d="M187 502v-502h-93v722l506 -514v502h93v-722zM223 804q8 43 37 69t69 26q19 0 37.5 -7t34.5 -15t30.5 -15t26.5 -7q33 0 43 44h66l-4 -19q-8 -42 -36.5 -68t-69.5 -26q-20 0 -38 7t-34 15l-30 15t-26 7q-32 0 -44 -44h-65z" />
    <glyph glyph-name="Ograve" unicode="&#xd2;" horiz-adv-x="825" 
d="M412 76q58 0 108.5 21.5t87 59.5t57.5 88.5t21 109.5q0 58 -21 109t-57.5 89t-87 59.5t-108.5 21.5t-108 -21.5t-86.5 -59.5t-57.5 -89t-21 -109q0 -59 21 -109.5t57.5 -88.5t86.5 -59.5t108 -21.5zM412 -12q-77 0 -143.5 28.5t-116.5 78t-78.5 116.5t-28.5 144t28.5 144
t78.5 116.5t116.5 78t143.5 28.5t144 -28.5t116.5 -78t78 -116.5t28.5 -144t-28.5 -144t-78 -116.5t-116.5 -78t-144 -28.5zM373 770l-115 159h109l78 -159h-72z" />
    <glyph glyph-name="Oacute" unicode="&#xd3;" horiz-adv-x="825" 
d="M412 76q58 0 108.5 21.5t87 59.5t57.5 88.5t21 109.5q0 58 -21 109t-57.5 89t-87 59.5t-108.5 21.5t-108 -21.5t-86.5 -59.5t-57.5 -89t-21 -109q0 -59 21 -109.5t57.5 -88.5t86.5 -59.5t108 -21.5zM412 -12q-77 0 -143.5 28.5t-116.5 78t-78.5 116.5t-28.5 144t28.5 144
t78.5 116.5t116.5 78t143.5 28.5t144 -28.5t116.5 -78t78 -116.5t28.5 -144t-28.5 -144t-78 -116.5t-116.5 -78t-144 -28.5zM457 929h109l-114 -159h-73z" />
    <glyph glyph-name="Ocircumflex" unicode="&#xd4;" horiz-adv-x="825" 
d="M412 76q58 0 108.5 21.5t87 59.5t57.5 88.5t21 109.5q0 58 -21 109t-57.5 89t-87 59.5t-108.5 21.5t-108 -21.5t-86.5 -59.5t-57.5 -89t-21 -109q0 -59 21 -109.5t57.5 -88.5t86.5 -59.5t108 -21.5zM412 -12q-77 0 -143.5 28.5t-116.5 78t-78.5 116.5t-28.5 144t28.5 144
t78.5 116.5t116.5 78t143.5 28.5t144 -28.5t116.5 -78t78 -116.5t28.5 -144t-28.5 -144t-78 -116.5t-116.5 -78t-144 -28.5zM246 836l166 87l166 -87v-75l-166 87l-166 -87v75z" />
    <glyph glyph-name="Otilde" unicode="&#xd5;" horiz-adv-x="825" 
d="M412 76q58 0 108.5 21.5t87 59.5t57.5 88.5t21 109.5q0 58 -21 109t-57.5 89t-87 59.5t-108.5 21.5t-108 -21.5t-86.5 -59.5t-57.5 -89t-21 -109q0 -59 21 -109.5t57.5 -88.5t86.5 -59.5t108 -21.5zM412 -12q-77 0 -143.5 28.5t-116.5 78t-78.5 116.5t-28.5 144t28.5 144
t78.5 116.5t116.5 78t143.5 28.5t144 -28.5t116.5 -78t78 -116.5t28.5 -144t-28.5 -144t-78 -116.5t-116.5 -78t-144 -28.5zM242 804q8 43 37 69t69 26q19 0 37.5 -7t34.5 -15t30.5 -15t26.5 -7q33 0 43 44h66l-4 -19q-8 -42 -36.5 -68t-69.5 -26q-20 0 -38 7t-34 15l-30 15
t-26 7q-32 0 -44 -44h-65z" />
    <glyph glyph-name="Odieresis" unicode="&#xd6;" horiz-adv-x="825" 
d="M412 76q58 0 108.5 21.5t87 59.5t57.5 88.5t21 109.5q0 58 -21 109t-57.5 89t-87 59.5t-108.5 21.5t-108 -21.5t-86.5 -59.5t-57.5 -89t-21 -109q0 -59 21 -109.5t57.5 -88.5t86.5 -59.5t108 -21.5zM412 -12q-77 0 -143.5 28.5t-116.5 78t-78.5 116.5t-28.5 144t28.5 144
t78.5 116.5t116.5 78t143.5 28.5t144 -28.5t116.5 -78t78 -116.5t28.5 -144t-28.5 -144t-78 -116.5t-116.5 -78t-144 -28.5zM300 785q-25 0 -42 17t-17 41t17 41.5t42 17.5q24 0 41 -17.5t17 -41.5t-17 -41t-41 -17zM525 785q-24 0 -41.5 17t-17.5 41t17.5 41.5t41.5 17.5
t41 -17.5t17 -41.5t-17 -41t-41 -17z" />
    <glyph glyph-name="multiply" unicode="&#xd7;" horiz-adv-x="503" 
d="M53 149l143 141l-143 140l56 56l143 -140l142 140l56 -56l-143 -140l143 -141l-56 -55l-142 140l-143 -140z" />
    <glyph glyph-name="Oslash" unicode="&#xd8;" horiz-adv-x="826" 
d="M413 76q58 0 108.5 21.5t87 59.5t57.5 88.5t21 109.5q0 58 -21 109t-57.5 89t-87 59.5t-108.5 21.5t-108 -21.5t-86.5 -59.5t-57.5 -89t-21 -109q0 -59 21 -109.5t57.5 -88.5t86.5 -59.5t108 -21.5zM413 -12q-77 0 -143.5 28.5t-116.5 78t-78.5 116.5t-28.5 144t28.5 144
t78.5 116.5t116.5 78t143.5 28.5t144 -28.5t116.5 -78t78 -116.5t28.5 -144t-28.5 -144t-78 -116.5t-116.5 -78t-144 -28.5zM130 -20l-56 52l623 698l55 -51z" />
    <glyph glyph-name="Ugrave" unicode="&#xd9;" horiz-adv-x="726" 
d="M363 -12q-62 0 -113 20t-87.5 57.5t-57 91t-20.5 119.5v434h93v-436q0 -96 50.5 -147t134.5 -51t134.5 51t50.5 147v436h93v-434q0 -66 -20.5 -119.5t-57 -91t-88 -57.5t-112.5 -20zM324 770l-115 159h109l78 -159h-72z" />
    <glyph glyph-name="Uacute" unicode="&#xda;" horiz-adv-x="726" 
d="M363 -12q-62 0 -113 20t-87.5 57.5t-57 91t-20.5 119.5v434h93v-436q0 -96 50.5 -147t134.5 -51t134.5 51t50.5 147v436h93v-434q0 -66 -20.5 -119.5t-57 -91t-88 -57.5t-112.5 -20zM407 929h109l-114 -159h-73z" />
    <glyph glyph-name="Ucircumflex" unicode="&#xdb;" horiz-adv-x="726" 
d="M363 -12q-62 0 -113 20t-87.5 57.5t-57 91t-20.5 119.5v434h93v-436q0 -96 50.5 -147t134.5 -51t134.5 51t50.5 147v436h93v-434q0 -66 -20.5 -119.5t-57 -91t-88 -57.5t-112.5 -20zM197 836l166 87l166 -87v-75l-166 87l-166 -87v75z" />
    <glyph glyph-name="Udieresis" unicode="&#xdc;" horiz-adv-x="726" 
d="M363 -12q-62 0 -113 20t-87.5 57.5t-57 91t-20.5 119.5v434h93v-436q0 -96 50.5 -147t134.5 -51t134.5 51t50.5 147v436h93v-434q0 -66 -20.5 -119.5t-57 -91t-88 -57.5t-112.5 -20zM251 785q-25 0 -42 17t-17 41t17 41.5t42 17.5q24 0 41 -17.5t17 -41.5t-17 -41
t-41 -17zM476 785q-24 0 -41.5 17t-17.5 41t17.5 41.5t41.5 17.5t41 -17.5t17 -41.5t-17 -41t-41 -17z" />
    <glyph glyph-name="Yacute" unicode="&#xdd;" horiz-adv-x="671" 
d="M289 301l-276 409h111l211 -316l212 316h111l-277 -410v-300h-92v301zM379 929h109l-114 -159h-73z" />
    <glyph glyph-name="Thorn" unicode="&#xde;" horiz-adv-x="606" 
d="M567 355q0 -44 -16 -82t-46.5 -66.5t-73.5 -45t-97 -16.5h-147v-145h-93v710h93v-144h147q54 0 97 -16.5t73.5 -45t46.5 -67t16 -82.5zM475 355q0 53 -35.5 89t-106.5 36h-146v-249h146q71 0 106.5 36.5t35.5 87.5z" />
    <glyph glyph-name="germandbls" unicode="&#xdf;" horiz-adv-x="573" 
d="M81 513q0 47 16 85.5t44 66t65.5 42.5t79.5 15t79.5 -15t65 -40.5t44 -60t16.5 -74.5q0 -48 -22 -88.5t-61 -66.5q31 -12 54.5 -31t39 -42.5t23 -49.5t7.5 -52q0 -41 -15 -77.5t-43.5 -64t-70 -44t-94.5 -16.5h-58v81h55q64 0 102 34t38 89q0 54 -38 88.5t-102 34.5h-53
v81h26q28 0 51 9t39.5 24.5t26 37t9.5 45.5q0 25 -9 46t-24.5 37t-37 25t-46.5 9q-52 0 -86.5 -35.5t-34.5 -93.5v-512h-86v513z" />
    <glyph glyph-name="agrave" unicode="&#xe0;" horiz-adv-x="624" 
d="M294 -10q-56 0 -102.5 20.5t-79.5 56t-51.5 83t-18.5 100.5t18.5 100.5t51.5 83t79.5 56t102.5 20.5q49 0 91 -16.5t72 -48.5v55h86v-500h-86v55q-30 -32 -72 -48.5t-91 -16.5zM301 69q56 0 95 24t61 59v197q-22 35 -61 58.5t-95 23.5q-38 0 -69 -14t-53.5 -39t-35 -58
t-12.5 -70q0 -38 12.5 -70.5t35 -57.5t53.5 -39t69 -14zM295 557l-125 153h109l88 -153h-72z" />
    <glyph glyph-name="aacute" unicode="&#xe1;" horiz-adv-x="624" 
d="M294 -10q-56 0 -102.5 20.5t-79.5 56t-51.5 83t-18.5 100.5t18.5 100.5t51.5 83t79.5 56t102.5 20.5q49 0 91 -16.5t72 -48.5v55h86v-500h-86v55q-30 -32 -72 -48.5t-91 -16.5zM301 69q56 0 95 24t61 59v197q-22 35 -61 58.5t-95 23.5q-38 0 -69 -14t-53.5 -39t-35 -58
t-12.5 -70q0 -38 12.5 -70.5t35 -57.5t53.5 -39t69 -14zM387 710h109l-125 -153h-72z" />
    <glyph glyph-name="acircumflex" unicode="&#xe2;" horiz-adv-x="624" 
d="M294 -10q-56 0 -102.5 20.5t-79.5 56t-51.5 83t-18.5 100.5t18.5 100.5t51.5 83t79.5 56t102.5 20.5q49 0 91 -16.5t72 -48.5v55h86v-500h-86v55q-30 -32 -72 -48.5t-91 -16.5zM301 69q56 0 95 24t61 59v197q-22 35 -61 58.5t-95 23.5q-38 0 -69 -14t-53.5 -39t-35 -58
t-12.5 -70q0 -38 12.5 -70.5t35 -57.5t53.5 -39t69 -14zM488 626v-78l-155 96l-155 -96v78l155 96z" />
    <glyph glyph-name="atilde" unicode="&#xe3;" horiz-adv-x="624" 
d="M294 -10q-56 0 -102.5 20.5t-79.5 56t-51.5 83t-18.5 100.5t18.5 100.5t51.5 83t79.5 56t102.5 20.5q49 0 91 -16.5t72 -48.5v55h86v-500h-86v55q-30 -32 -72 -48.5t-91 -16.5zM301 69q56 0 95 24t61 59v197q-22 35 -61 58.5t-95 23.5q-38 0 -69 -14t-53.5 -39t-35 -58
t-12.5 -70q0 -38 12.5 -70.5t35 -57.5t53.5 -39t69 -14zM162 611q8 43 37 69t69 26q20 0 38 -7t34.5 -15t30.5 -15t26 -7q33 0 43 44h66l-3 -18q-8 -43 -37 -69t-69 -26q-20 0 -38 7t-34.5 15t-30.5 15t-26 7q-33 0 -43 -44h-66z" />
    <glyph glyph-name="adieresis" unicode="&#xe4;" horiz-adv-x="624" 
d="M294 -10q-56 0 -102.5 20.5t-79.5 56t-51.5 83t-18.5 100.5t18.5 100.5t51.5 83t79.5 56t102.5 20.5q49 0 91 -16.5t72 -48.5v55h86v-500h-86v55q-30 -32 -72 -48.5t-91 -16.5zM301 69q56 0 95 24t61 59v197q-22 35 -61 58.5t-95 23.5q-38 0 -69 -14t-53.5 -39t-35 -58
t-12.5 -70q0 -38 12.5 -70.5t35 -57.5t53.5 -39t69 -14zM221 595q-25 0 -42 17t-17 41t17 41t42 17q24 0 41 -17t17 -41t-17 -41t-41 -17zM446 595q-24 0 -41.5 17t-17.5 41t17.5 41t41.5 17t41 -17t17 -41t-17 -41t-41 -17z" />
    <glyph glyph-name="aring" unicode="&#xe5;" horiz-adv-x="624" 
d="M294 -10q-56 0 -102.5 20.5t-79.5 56t-51.5 83t-18.5 100.5t18.5 100.5t51.5 83t79.5 56t102.5 20.5q49 0 91 -16.5t72 -48.5v55h86v-500h-86v55q-30 -32 -72 -48.5t-91 -16.5zM301 69q56 0 95 24t61 59v197q-22 35 -61 58.5t-95 23.5q-38 0 -69 -14t-53.5 -39t-35 -58
t-12.5 -70q0 -38 12.5 -70.5t35 -57.5t53.5 -39t69 -14zM333 541q-25 0 -47.5 9.5t-39 26t-26 38.5t-9.5 47t9.5 47t26 38.5t39 26t47.5 9.5t47 -9.5t38.5 -26t26 -38.5t9.5 -47t-9.5 -47t-26 -38.5t-38.5 -26t-47 -9.5zM333 592q28 0 48.5 20.5t20.5 49.5t-20.5 49.5
t-48.5 20.5q-29 0 -50 -20.5t-21 -49.5t21 -49.5t50 -20.5z" />
    <glyph glyph-name="ae" unicode="&#xe6;" horiz-adv-x="888" 
d="M647 -10q-65 0 -119.5 22t-91.5 67q-42 -47 -96.5 -68t-109.5 -21q-43 0 -79 12t-61.5 34t-40 53t-14.5 69q0 36 15.5 65.5t42.5 51t64 33.5t79 12q48 0 81.5 -11t62.5 -27v15q-2 68 -42 101t-96 33q-47 0 -87.5 -15.5t-68.5 -38.5v93q31 20 74 30t89 10q60 0 106.5 -25
t73.5 -70q32 45 82 70t114 25q54 0 96.5 -21t72 -58.5t44 -89t11.5 -112.5h-383q1 -44 17 -74.5t41.5 -50t57.5 -28t66 -8.5q52 0 89 12t68 31v-88q-34 -15 -69 -24t-89 -9zM233 67q47 0 86.5 16t60.5 52v68q-27 21 -59.5 34t-78.5 13q-24 0 -45.5 -5t-38.5 -16t-27 -28.5
t-10 -42.5q0 -24 9.5 -41.5t25 -28.5t36 -16t41.5 -5zM620 435q-25 0 -49.5 -8t-45.5 -24.5t-36 -42.5t-20 -62h290q-8 64 -44.5 100.5t-94.5 36.5z" />
    <glyph glyph-name="ccedilla" unicode="&#xe7;" horiz-adv-x="477" 
d="M312 -10q-60 0 -109.5 19t-85 53.5t-55.5 82t-20 105.5t20 105.5t55.5 82t85 53.5t109.5 19q34 0 67 -5.5t57 -16.5v-89q-24 14 -56.5 22.5t-65.5 8.5q-84 0 -134 -48t-50 -132t50 -132t134 -48q33 0 65.5 8.5t56.5 22.5v-89q-24 -11 -57 -16.5t-67 -5.5zM289 -194
q-21 0 -41 3.5t-40 9.5v54q16 -7 36.5 -10.5t38.5 -3.5q20 0 38.5 6t18.5 22q0 11 -11 16.5t-28 5.5q-14 0 -25 -2.5t-21 -6.5l-31 22l49 81h55l-32 -52q16 7 38 7q32 0 54 -17.5t22 -49.5q0 -41 -33.5 -63t-87.5 -22z" />
    <glyph glyph-name="egrave" unicode="&#xe8;" horiz-adv-x="555" 
d="M310 -10q-55 0 -103.5 16.5t-84.5 49t-57.5 81t-21.5 113.5q0 57 17.5 104.5t50 82t77.5 54t101 19.5t99.5 -21t73 -58.5t43.5 -89t11 -112.5h-383q1 -44 17 -74.5t41.5 -50t57.5 -28t66 -8.5q52 0 89 12t68 31v-88q-34 -15 -70 -24t-92 -9zM426 298q-8 64 -44.5 100.5
t-94.5 36.5q-25 0 -49.5 -8t-45.5 -24.5t-36 -42.5t-20 -62h290zM251 557l-125 153h109l88 -153h-72z" />
    <glyph glyph-name="eacute" unicode="&#xe9;" horiz-adv-x="555" 
d="M310 -10q-55 0 -103.5 16.5t-84.5 49t-57.5 81t-21.5 113.5q0 57 17.5 104.5t50 82t77.5 54t101 19.5t99.5 -21t73 -58.5t43.5 -89t11 -112.5h-383q1 -44 17 -74.5t41.5 -50t57.5 -28t66 -8.5q52 0 89 12t68 31v-88q-34 -15 -70 -24t-92 -9zM426 298q-8 64 -44.5 100.5
t-94.5 36.5q-25 0 -49.5 -8t-45.5 -24.5t-36 -42.5t-20 -62h290zM344 710h109l-125 -153h-72z" />
    <glyph glyph-name="ecircumflex" unicode="&#xea;" horiz-adv-x="555" 
d="M310 -10q-55 0 -103.5 16.5t-84.5 49t-57.5 81t-21.5 113.5q0 57 17.5 104.5t50 82t77.5 54t101 19.5t99.5 -21t73 -58.5t43.5 -89t11 -112.5h-383q1 -44 17 -74.5t41.5 -50t57.5 -28t66 -8.5q52 0 89 12t68 31v-88q-34 -15 -70 -24t-92 -9zM426 298q-8 64 -44.5 100.5
t-94.5 36.5q-25 0 -49.5 -8t-45.5 -24.5t-36 -42.5t-20 -62h290zM444 626v-78l-155 96l-155 -96v78l155 96z" />
    <glyph glyph-name="edieresis" unicode="&#xeb;" horiz-adv-x="555" 
d="M310 -10q-55 0 -103.5 16.5t-84.5 49t-57.5 81t-21.5 113.5q0 57 17.5 104.5t50 82t77.5 54t101 19.5t99.5 -21t73 -58.5t43.5 -89t11 -112.5h-383q1 -44 17 -74.5t41.5 -50t57.5 -28t66 -8.5q52 0 89 12t68 31v-88q-34 -15 -70 -24t-92 -9zM426 298q-8 64 -44.5 100.5
t-94.5 36.5q-25 0 -49.5 -8t-45.5 -24.5t-36 -42.5t-20 -62h290zM177 595q-25 0 -42 17t-17 41t17 41t42 17q24 0 41 -17t17 -41t-17 -41t-41 -17zM402 595q-24 0 -41.5 17t-17.5 41t17.5 41t41.5 17t41 -17t17 -41t-17 -41t-41 -17z" />
    <glyph glyph-name="igrave" unicode="&#xec;" horiz-adv-x="249" 
d="M81 500h86v-500h-86v500zM86 557l-125 153h109l88 -153h-72z" />
    <glyph glyph-name="iacute" unicode="&#xed;" horiz-adv-x="249" 
d="M81 500h86v-500h-86v500zM179 710h109l-125 -153h-72z" />
    <glyph glyph-name="icircumflex" unicode="&#xee;" horiz-adv-x="249" 
d="M81 500h86v-500h-86v500zM279 626v-78l-155 96l-155 -96v78l155 96z" />
    <glyph glyph-name="idieresis" unicode="&#xef;" horiz-adv-x="249" 
d="M81 500h86v-500h-86v500zM26 596q-26 0 -43.5 17.5t-17.5 43.5q0 25 17.5 42.5t43.5 17.5q25 0 43 -17.5t18 -42.5q0 -26 -18 -43.5t-43 -17.5zM222 596q-26 0 -43.5 17.5t-17.5 43.5q0 25 17.5 42.5t43.5 17.5q25 0 43 -17.5t18 -42.5q0 -26 -18 -43.5t-43 -17.5z" />
    <glyph glyph-name="eth" unicode="&#xf0;" horiz-adv-x="606" 
d="M400 574l111 -164q23 -35 38.5 -74.5t15.5 -85.5q0 -54 -19.5 -101t-54.5 -82.5t-83 -56t-105 -20.5q-56 0 -104 20.5t-83 56t-54.5 82.5t-19.5 101q0 55 20.5 102.5t55.5 82.5t82 54.5t100 19.5q11 0 24 -1t29 -4l-48 70h-142v68h96l-46 68h95l46 -68h124v-68h-78z
M303 70q39 0 71 14t55 38.5t35.5 57t12.5 70.5q0 37 -12.5 70t-35.5 57.5t-55 38.5t-71 14t-71 -14t-55 -38.5t-35.5 -57.5t-12.5 -70q0 -38 12.5 -70.5t35.5 -57t55 -38.5t71 -14z" />
    <glyph glyph-name="ntilde" unicode="&#xf1;" horiz-adv-x="589" 
d="M81 500h86v-63q26 38 68 55.5t90 17.5q42 0 77 -14t60 -40.5t39 -64t14 -84.5v-307h-85v294q0 66 -33.5 101.5t-91.5 35.5q-53 0 -88 -27.5t-50 -71.5v-332h-86v500zM127 611q8 43 37 69t69 26q20 0 38 -7t34.5 -15t30.5 -15t26 -7q33 0 43 44h66l-3 -18q-8 -43 -37 -69
t-69 -26q-20 0 -38 7t-34.5 15t-30.5 15t-26 7q-33 0 -43 -44h-66z" />
    <glyph glyph-name="ograve" unicode="&#xf2;" horiz-adv-x="606" 
d="M303 -10q-57 0 -105 20.5t-83 55.5t-54.5 82.5t-19.5 101.5t19.5 101.5t54.5 82.5t83 55.5t105 20.5q56 0 104 -20.5t83 -55.5t54.5 -82.5t19.5 -101.5t-19.5 -101.5t-54.5 -82.5t-83 -55.5t-104 -20.5zM303 70q39 0 71 14t54.5 38.5t35 57t12.5 70.5q0 37 -12.5 70
t-35 57.5t-54.5 38.5t-71 14t-71 -14t-55 -38.5t-35.5 -57.5t-12.5 -70q0 -38 12.5 -70.5t35.5 -57t55 -38.5t71 -14zM265 557l-125 153h109l88 -153h-72z" />
    <glyph glyph-name="oacute" unicode="&#xf3;" horiz-adv-x="606" 
d="M303 -10q-57 0 -105 20.5t-83 55.5t-54.5 82.5t-19.5 101.5t19.5 101.5t54.5 82.5t83 55.5t105 20.5q56 0 104 -20.5t83 -55.5t54.5 -82.5t19.5 -101.5t-19.5 -101.5t-54.5 -82.5t-83 -55.5t-104 -20.5zM303 70q39 0 71 14t54.5 38.5t35 57t12.5 70.5q0 37 -12.5 70
t-35 57.5t-54.5 38.5t-71 14t-71 -14t-55 -38.5t-35.5 -57.5t-12.5 -70q0 -38 12.5 -70.5t35.5 -57t55 -38.5t71 -14zM358 710h109l-125 -153h-72z" />
    <glyph glyph-name="ocircumflex" unicode="&#xf4;" horiz-adv-x="606" 
d="M303 -10q-57 0 -105 20.5t-83 55.5t-54.5 82.5t-19.5 101.5t19.5 101.5t54.5 82.5t83 55.5t105 20.5q56 0 104 -20.5t83 -55.5t54.5 -82.5t19.5 -101.5t-19.5 -101.5t-54.5 -82.5t-83 -55.5t-104 -20.5zM303 70q39 0 71 14t54.5 38.5t35 57t12.5 70.5q0 37 -12.5 70
t-35 57.5t-54.5 38.5t-71 14t-71 -14t-55 -38.5t-35.5 -57.5t-12.5 -70q0 -38 12.5 -70.5t35.5 -57t55 -38.5t71 -14zM458 626v-78l-155 96l-155 -96v78l155 96z" />
    <glyph glyph-name="otilde" unicode="&#xf5;" horiz-adv-x="606" 
d="M303 -10q-57 0 -105 20.5t-83 55.5t-54.5 82.5t-19.5 101.5t19.5 101.5t54.5 82.5t83 55.5t105 20.5q56 0 104 -20.5t83 -55.5t54.5 -82.5t19.5 -101.5t-19.5 -101.5t-54.5 -82.5t-83 -55.5t-104 -20.5zM303 70q39 0 71 14t54.5 38.5t35 57t12.5 70.5q0 37 -12.5 70
t-35 57.5t-54.5 38.5t-71 14t-71 -14t-55 -38.5t-35.5 -57.5t-12.5 -70q0 -38 12.5 -70.5t35.5 -57t55 -38.5t71 -14zM132 611q8 43 37 69t69 26q20 0 38 -7t34.5 -15t30.5 -15t26 -7q33 0 43 44h66l-3 -18q-8 -43 -37 -69t-69 -26q-20 0 -38 7t-34.5 15t-30.5 15t-26 7
q-33 0 -43 -44h-66z" />
    <glyph glyph-name="odieresis" unicode="&#xf6;" horiz-adv-x="606" 
d="M303 -10q-57 0 -105 20.5t-83 55.5t-54.5 82.5t-19.5 101.5t19.5 101.5t54.5 82.5t83 55.5t105 20.5q56 0 104 -20.5t83 -55.5t54.5 -82.5t19.5 -101.5t-19.5 -101.5t-54.5 -82.5t-83 -55.5t-104 -20.5zM303 70q39 0 71 14t54.5 38.5t35 57t12.5 70.5q0 37 -12.5 70
t-35 57.5t-54.5 38.5t-71 14t-71 -14t-55 -38.5t-35.5 -57.5t-12.5 -70q0 -38 12.5 -70.5t35.5 -57t55 -38.5t71 -14zM191 595q-25 0 -42 17t-17 41t17 41t42 17q24 0 41 -17t17 -41t-17 -41t-41 -17zM416 595q-24 0 -41.5 17t-17.5 41t17.5 41t41.5 17t41 -17t17 -41
t-17 -41t-41 -17z" />
    <glyph glyph-name="oslash" unicode="&#xf8;" horiz-adv-x="616" 
d="M308 -10q-57 0 -105 20.5t-83 55.5t-54.5 82.5t-19.5 101.5t19.5 101.5t54.5 82.5t83 55.5t105 20.5q56 0 104 -20.5t83 -55.5t54.5 -82.5t19.5 -101.5t-19.5 -101.5t-54.5 -82.5t-83 -55.5t-104 -20.5zM308 70q39 0 71 14t54.5 38.5t35 57t12.5 70.5q0 37 -12.5 70
t-35 57.5t-54.5 38.5t-71 14t-71 -14t-55 -38.5t-35.5 -57.5t-12.5 -70q0 -38 12.5 -70.5t35.5 -57t55 -38.5t71 -14zM93 -10l-40 40l471 480l39 -39z" />
    <glyph glyph-name="ugrave" unicode="&#xf9;" horiz-adv-x="579" 
d="M498 0h-86v63q-26 -38 -67.5 -55.5t-83.5 -17.5q-41 0 -75.5 14t-59.5 40.5t-38.5 64t-13.5 84.5v307h86v-294q0 -66 32 -101.5t88 -35.5q48 0 82 27.5t50 71.5v332h86v-500zM247 557l-125 153h109l88 -153h-72z" />
    <glyph glyph-name="uacute" unicode="&#xfa;" horiz-adv-x="579" 
d="M498 0h-86v63q-26 -38 -67.5 -55.5t-83.5 -17.5q-41 0 -75.5 14t-59.5 40.5t-38.5 64t-13.5 84.5v307h86v-294q0 -66 32 -101.5t88 -35.5q48 0 82 27.5t50 71.5v332h86v-500zM340 710h109l-125 -153h-72z" />
    <glyph glyph-name="ucircumflex" unicode="&#xfb;" horiz-adv-x="579" 
d="M498 0h-86v63q-26 -38 -67.5 -55.5t-83.5 -17.5q-41 0 -75.5 14t-59.5 40.5t-38.5 64t-13.5 84.5v307h86v-294q0 -66 32 -101.5t88 -35.5q48 0 82 27.5t50 71.5v332h86v-500zM440 626v-78l-155 96l-155 -96v78l155 96z" />
    <glyph glyph-name="udieresis" unicode="&#xfc;" horiz-adv-x="579" 
d="M498 0h-86v63q-26 -38 -67.5 -55.5t-83.5 -17.5q-41 0 -75.5 14t-59.5 40.5t-38.5 64t-13.5 84.5v307h86v-294q0 -66 32 -101.5t88 -35.5q48 0 82 27.5t50 71.5v332h86v-500zM173 595q-25 0 -42 17t-17 41t17 41t42 17q24 0 41 -17t17 -41t-17 -41t-41 -17zM398 595
q-24 0 -41.5 17t-17.5 41t17.5 41t41.5 17t41 -17t17 -41t-17 -41t-41 -17z" />
    <glyph glyph-name="yacute" unicode="&#xfd;" horiz-adv-x="546" 
d="M228 80l-223 420h97l174 -337l174 337h97l-362 -684h-99zM331 710h109l-125 -153h-72z" />
    <glyph glyph-name="thorn" unicode="&#xfe;" horiz-adv-x="623" 
d="M81 710h86v-265q31 32 73 48.5t90 16.5q55 0 101.5 -20.5t79.5 -56t51.5 -83t18.5 -100.5t-18.5 -100.5t-51.5 -83t-79.5 -56t-101.5 -20.5q-48 0 -90 16.5t-73 48.5v-239h-86v894zM323 69q38 0 69 14t53.5 39t35 57.5t12.5 70.5q0 37 -12.5 70t-35 58t-53.5 39t-69 14
q-56 0 -95 -23.5t-61 -58.5v-197q22 -35 61 -59t95 -24z" />
    <glyph glyph-name="ydieresis" unicode="&#xff;" horiz-adv-x="546" 
d="M228 80l-223 420h97l174 -337l174 337h97l-362 -684h-99zM164 595q-25 0 -42 17t-17 41t17 41t42 17q24 0 41 -17t17 -41t-17 -41t-41 -17zM389 595q-24 0 -41.5 17t-17.5 41t17.5 41t41.5 17t41 -17t17 -41t-17 -41t-41 -17z" />
    <glyph glyph-name="Abreve" unicode="&#x102;" horiz-adv-x="697" 
d="M184 185l-90 -185h-97l351 722l351 -722h-96l-90 185h-329zM348 527l-123 -258h247zM348 759q-33 0 -62 11t-50.5 32t-34 50.5t-12.5 65.5h58q0 -49 29.5 -75t71.5 -26t71.5 26t29.5 75h58q0 -36 -12.5 -65.5t-34 -50.5t-50.5 -32t-62 -11z" />
    <glyph glyph-name="Amacron" unicode="&#x100;" horiz-adv-x="697" 
d="M184 185l-90 -185h-97l351 722l351 -722h-96l-90 185h-329zM348 527l-123 -258h247zM187 878h322v-73h-322v73z" />
    <glyph glyph-name="Aogonek" unicode="&#x104;" horiz-adv-x="697" 
d="M184 185l-90 -185h-97l351 722l351 -722q-42 -26 -62.5 -45t-20.5 -44q0 -17 10.5 -24t25.5 -7q13 0 25.5 3t20.5 8v-71q-13 -6 -28.5 -10t-38.5 -4q-42 0 -70 24t-28 62q0 37 20 60.5t50 47.5l-90 185h-329zM348 527l-123 -258h247z" />
    <glyph glyph-name="Cacute" unicode="&#x106;" horiz-adv-x="633" 
d="M426 -12q-83 0 -152.5 28.5t-120.5 78t-79.5 116.5t-28.5 144t28.5 144t79.5 116.5t120.5 78t152.5 28.5q57 0 96 -8.5t71 -22.5v-96q-32 17 -71.5 28t-94.5 11q-65 0 -118 -21.5t-91 -59.5t-58.5 -89t-20.5 -109q0 -59 20.5 -109.5t58.5 -88.5t91 -59.5t118 -21.5
q55 0 94.5 11t71.5 28v-96q-32 -14 -71 -22.5t-96 -8.5zM457 929h109l-114 -159h-73z" />
    <glyph glyph-name="Ccaron" unicode="&#x10c;" horiz-adv-x="633" 
d="M426 -12q-83 0 -152.5 28.5t-120.5 78t-79.5 116.5t-28.5 144t28.5 144t79.5 116.5t120.5 78t152.5 28.5q57 0 96 -8.5t71 -22.5v-96q-32 17 -71.5 28t-94.5 11q-65 0 -118 -21.5t-91 -59.5t-58.5 -89t-20.5 -109q0 -59 20.5 -109.5t58.5 -88.5t91 -59.5t118 -21.5
q55 0 94.5 11t71.5 28v-96q-32 -14 -71 -22.5t-96 -8.5zM246 848v75l166 -87l166 87v-75l-166 -87z" />
    <glyph glyph-name="Ccircumflex" unicode="&#x108;" horiz-adv-x="633" 
d="M426 -12q-83 0 -152.5 28.5t-120.5 78t-79.5 116.5t-28.5 144t28.5 144t79.5 116.5t120.5 78t152.5 28.5q57 0 96 -8.5t71 -22.5v-96q-32 17 -71.5 28t-94.5 11q-65 0 -118 -21.5t-91 -59.5t-58.5 -89t-20.5 -109q0 -59 20.5 -109.5t58.5 -88.5t91 -59.5t118 -21.5
q55 0 94.5 11t71.5 28v-96q-32 -14 -71 -22.5t-96 -8.5zM246 836l166 87l166 -87v-75l-166 87l-166 -87v75z" />
    <glyph glyph-name="Cdotaccent" unicode="&#x10a;" horiz-adv-x="633" 
d="M426 -12q-83 0 -152.5 28.5t-120.5 78t-79.5 116.5t-28.5 144t28.5 144t79.5 116.5t120.5 78t152.5 28.5q57 0 96 -8.5t71 -22.5v-96q-32 17 -71.5 28t-94.5 11q-65 0 -118 -21.5t-91 -59.5t-58.5 -89t-20.5 -109q0 -59 20.5 -109.5t58.5 -88.5t91 -59.5t118 -21.5
q55 0 94.5 11t71.5 28v-96q-32 -14 -71 -22.5t-96 -8.5zM412 785q-25 0 -42 17t-17 41t17 41.5t42 17.5q24 0 41 -17.5t17 -41.5t-17 -41t-41 -17z" />
    <glyph glyph-name="Dcaron" unicode="&#x10e;" horiz-adv-x="721" 
d="M94 710h204q82 0 151 -27t119.5 -74.5t79 -112.5t28.5 -141t-28.5 -141t-79 -112.5t-119.5 -74.5t-151 -27h-204v710zM298 87q64 0 116.5 20t89.5 56t57.5 85t20.5 107t-20.5 107t-57.5 85t-89.5 56t-116.5 20h-111v-536h111zM175 848v75l166 -87l166 87v-75l-166 -87z
" />
    <glyph glyph-name="Dcroat" unicode="&#x110;" horiz-adv-x="729" 
d="M102 710h204q82 0 151 -27t119.5 -74.5t79 -112.5t28.5 -141t-28.5 -141t-79 -112.5t-119.5 -74.5t-151 -27h-204v710zM306 87q64 0 116.5 20t89.5 56t57.5 85t20.5 107t-20.5 107t-57.5 85t-89.5 56t-116.5 20h-111v-536h111zM28 401h326v-82h-326v82z" />
    <glyph glyph-name="Ebreve" unicode="&#x114;" horiz-adv-x="553" 
d="M94 710h414v-88h-321v-215h227v-88h-227v-231h321v-88h-414v710zM301 759q-33 0 -62 11t-50.5 32t-34 50.5t-12.5 65.5h58q0 -49 29.5 -75t71.5 -26t71.5 26t29.5 75h58q0 -36 -12.5 -65.5t-34 -50.5t-50.5 -32t-62 -11z" />
    <glyph glyph-name="Ecaron" unicode="&#x11a;" horiz-adv-x="553" 
d="M94 710h414v-88h-321v-215h227v-88h-227v-231h321v-88h-414v710zM135 848v75l166 -87l166 87v-75l-166 -87z" />
    <glyph glyph-name="Emacron" unicode="&#x112;" horiz-adv-x="553" 
d="M94 710h414v-88h-321v-215h227v-88h-227v-231h321v-88h-414v710zM140 878h322v-73h-322v73z" />
    <glyph glyph-name="Eogonek" unicode="&#x118;" horiz-adv-x="553" 
d="M94 710h414v-88h-321v-215h227v-88h-227v-231h321v-88h-414v710zM439 -194q-42 0 -69.5 24t-27.5 62q0 37 22 60.5t52 47.5h92q-42 -26 -63 -45t-21 -44q0 -17 11 -24t25 -7q31 0 48 11v-71q-13 -6 -28.5 -10t-40.5 -4z" />
    <glyph glyph-name="Edotaccent" unicode="&#x116;" horiz-adv-x="553" 
d="M94 710h414v-88h-321v-215h227v-88h-227v-231h321v-88h-414v710zM301 785q-25 0 -42 17t-17 41t17 41.5t42 17.5q24 0 41 -17.5t17 -41.5t-17 -41t-41 -17z" />
    <glyph glyph-name="Gbreve" unicode="&#x11e;" horiz-adv-x="706" 
d="M424 -12q-86 0 -155.5 29t-119.5 79t-77 116.5t-27 142.5q0 77 28.5 144t79 116.5t120 78t152.5 28.5q57 0 96 -8.5t72 -22.5v-96q-32 17 -72 28t-94 11q-65 0 -118.5 -21.5t-91.5 -59.5t-58.5 -89t-20.5 -109q0 -59 20 -109.5t57 -88.5t90.5 -59.5t121.5 -21.5
q42 0 71.5 5t60.5 17v221h-224v87h315v-365q-46 -28 -103 -40.5t-123 -12.5zM412 759q-33 0 -62 11t-50.5 32t-34 50.5t-12.5 65.5h58q0 -49 29.5 -75t71.5 -26t71.5 26t29.5 75h58q0 -36 -12.5 -65.5t-34 -50.5t-50.5 -32t-62 -11z" />
    <glyph glyph-name="Gcircumflex" unicode="&#x11c;" horiz-adv-x="706" 
d="M424 -12q-86 0 -155.5 29t-119.5 79t-77 116.5t-27 142.5q0 77 28.5 144t79 116.5t120 78t152.5 28.5q57 0 96 -8.5t72 -22.5v-96q-32 17 -72 28t-94 11q-65 0 -118.5 -21.5t-91.5 -59.5t-58.5 -89t-20.5 -109q0 -59 20 -109.5t57 -88.5t90.5 -59.5t121.5 -21.5
q42 0 71.5 5t60.5 17v221h-224v87h315v-365q-46 -28 -103 -40.5t-123 -12.5zM246 836l166 87l166 -87v-75l-166 87l-166 -87v75z" />
    <glyph glyph-name="uni0122" unicode="&#x122;" horiz-adv-x="706" 
d="M424 -12q-86 0 -155.5 29t-119.5 79t-77 116.5t-27 142.5q0 77 28.5 144t79 116.5t120 78t152.5 28.5q57 0 96 -8.5t72 -22.5v-96q-32 17 -72 28t-94 11q-65 0 -118.5 -21.5t-91.5 -59.5t-58.5 -89t-20.5 -109q0 -59 20 -109.5t57 -88.5t90.5 -59.5t121.5 -21.5
q42 0 71.5 5t60.5 17v221h-224v87h315v-365q-46 -28 -103 -40.5t-123 -12.5zM359 -273l24 197h99l-72 -197h-51z" />
    <glyph glyph-name="Gdotaccent" unicode="&#x120;" horiz-adv-x="706" 
d="M424 -12q-86 0 -155.5 29t-119.5 79t-77 116.5t-27 142.5q0 77 28.5 144t79 116.5t120 78t152.5 28.5q57 0 96 -8.5t72 -22.5v-96q-32 17 -72 28t-94 11q-65 0 -118.5 -21.5t-91.5 -59.5t-58.5 -89t-20.5 -109q0 -59 20 -109.5t57 -88.5t90.5 -59.5t121.5 -21.5
q42 0 71.5 5t60.5 17v221h-224v87h315v-365q-46 -28 -103 -40.5t-123 -12.5zM412 785q-25 0 -42 17t-17 41t17 41.5t42 17.5q24 0 41 -17.5t17 -41.5t-17 -41t-41 -17z" />
    <glyph glyph-name="Hbar" unicode="&#x126;" horiz-adv-x="776" 
d="M101 710h93v-303h389v303h93v-710h-93v320h-389v-320h-93v710zM28 595h721v-72h-721v72z" />
    <glyph glyph-name="Hcircumflex" unicode="&#x124;" horiz-adv-x="763" 
d="M94 710h93v-303h389v303h93v-710h-93v320h-389v-320h-93v710zM215 836l166 87l166 -87v-75l-166 87l-166 -87v75z" />
    <glyph glyph-name="Ibreve" unicode="&#x12c;" horiz-adv-x="281" 
d="M94 710h93v-710h-93v710zM141 759q-33 0 -62 11t-50.5 32t-34 50.5t-12.5 65.5h58q0 -49 29.5 -75t71.5 -26t71.5 26t29.5 75h58q0 -36 -12.5 -65.5t-34 -50.5t-50.5 -32t-62 -11z" />
    <glyph glyph-name="Idotaccent" unicode="&#x130;" horiz-adv-x="281" 
d="M94 710h93v-710h-93v710zM141 785q-25 0 -42 17t-17 41t17 41.5t42 17.5q24 0 41 -17.5t17 -41.5t-17 -41t-41 -17z" />
    <glyph glyph-name="Imacron" unicode="&#x12a;" horiz-adv-x="281" 
d="M94 710h93v-710h-93v710zM-20 878h322v-73h-322v73z" />
    <glyph glyph-name="Iogonek" unicode="&#x12e;" horiz-adv-x="281" 
d="M94 710h93v-710h-93v710zM118 -194q-42 0 -69.5 24t-27.5 62q0 37 22 60.5t52 47.5h92q-42 -26 -63 -45t-21 -44q0 -17 11 -24t25 -7q31 0 48 11v-71q-13 -6 -28.5 -10t-40.5 -4z" />
    <glyph glyph-name="Itilde" unicode="&#x128;" horiz-adv-x="281" 
d="M94 710h93v-710h-93v710zM-29 804q8 43 37 69t69 26q19 0 37.5 -7t34.5 -15t30.5 -15t26.5 -7q33 0 43 44h66l-4 -19q-8 -42 -36.5 -68t-69.5 -26q-20 0 -38 7t-34 15l-30 15t-26 7q-32 0 -44 -44h-65z" />
    <glyph glyph-name="uni1ECA" unicode="&#x1eca;" horiz-adv-x="281" 
d="M94 710h93v-710h-93v710zM141 -190q-25 0 -42 17t-17 41t17 41.5t42 17.5q24 0 41 -17.5t17 -41.5t-17 -41t-41 -17z" />
    <glyph glyph-name="Jcircumflex" unicode="&#x134;" horiz-adv-x="426" 
d="M134 -12q-35 0 -62.5 4t-52.5 10v94q51 -22 107 -22q54 0 87 31t33 106v499h92v-508q0 -56 -15.5 -96.5t-43 -66.5t-65 -38.5t-80.5 -12.5zM126 836l166 87l166 -87v-75l-166 87l-166 -87v75z" />
    <glyph glyph-name="uni0136" unicode="&#x136;" horiz-adv-x="671" 
d="M196 366l308 344h112l-303 -337l381 -373h-125zM94 710h92v-710h-92v710zM296 -273l24 197h99l-72 -197h-51z" />
    <glyph glyph-name="Lacute" unicode="&#x139;" horiz-adv-x="548" 
d="M94 710h93v-622h343v-88h-436v710zM185 929h109l-114 -159h-73z" />
    <glyph glyph-name="Lcaron" unicode="&#x13d;" horiz-adv-x="548" 
d="M94 710h93v-622h343v-88h-436v710zM311 710h86l-50 -165h-60z" />
    <glyph glyph-name="uni013B" unicode="&#x13b;" horiz-adv-x="548" 
d="M94 710h93v-622h343v-88h-436v710zM244 -273l24 197h99l-72 -197h-51z" />
    <glyph glyph-name="Ldot" unicode="&#x13f;" horiz-adv-x="553" 
d="M94 710h93v-622h343v-88h-436v710zM417 341q-25 0 -42 17t-17 41t17 41.5t42 17.5q24 0 41 -17.5t17 -41.5t-17 -41t-41 -17z" />
    <glyph glyph-name="Lslash" unicode="&#x141;" horiz-adv-x="567" 
d="M113 710h93v-622h343v-88h-436v710zM40 213v84l325 210v-84z" />
    <glyph glyph-name="Nacute" unicode="&#x143;" horiz-adv-x="787" 
d="M187 502v-502h-93v722l506 -514v502h93v-722zM437 929h109l-114 -159h-73z" />
    <glyph glyph-name="Ncaron" unicode="&#x147;" horiz-adv-x="787" 
d="M187 502v-502h-93v722l506 -514v502h93v-722zM227 848v75l166 -87l166 87v-75l-166 -87z" />
    <glyph glyph-name="uni0145" unicode="&#x145;" horiz-adv-x="787" 
d="M187 502v-502h-93v722l506 -514v502h93v-722zM336 -273l24 197h99l-72 -197h-51z" />
    <glyph glyph-name="OE" unicode="&#x152;" horiz-adv-x="1146" 
d="M412 76q58 0 108.5 21.5t87 59.5t57.5 88.5t21 109.5q0 58 -21 109t-57.5 89t-87 59.5t-108.5 21.5t-108 -21.5t-86.5 -59.5t-57.5 -89t-21 -109q0 -59 21 -109.5t57.5 -88.5t86.5 -59.5t108 -21.5zM412 -12q-77 0 -143.5 28.5t-116.5 78t-78.5 116.5t-28.5 144t28.5 144
t78.5 116.5t116.5 78t143.5 28.5q87 0 156.5 -34.5t117.5 -96.5v119h414v-88h-322v-215h240v-88h-240v-231h322v-88h-414v119q-48 -62 -117.5 -96.5t-156.5 -34.5z" />
    <glyph glyph-name="Obreve" unicode="&#x14e;" horiz-adv-x="825" 
d="M412 76q58 0 108.5 21.5t87 59.5t57.5 88.5t21 109.5q0 58 -21 109t-57.5 89t-87 59.5t-108.5 21.5t-108 -21.5t-86.5 -59.5t-57.5 -89t-21 -109q0 -59 21 -109.5t57.5 -88.5t86.5 -59.5t108 -21.5zM412 -12q-77 0 -143.5 28.5t-116.5 78t-78.5 116.5t-28.5 144t28.5 144
t78.5 116.5t116.5 78t143.5 28.5t144 -28.5t116.5 -78t78 -116.5t28.5 -144t-28.5 -144t-78 -116.5t-116.5 -78t-144 -28.5zM412 759q-33 0 -62 11t-50.5 32t-34 50.5t-12.5 65.5h58q0 -49 29.5 -75t71.5 -26t71.5 26t29.5 75h58q0 -36 -12.5 -65.5t-34 -50.5t-50.5 -32
t-62 -11z" />
    <glyph glyph-name="Ohungarumlaut" unicode="&#x150;" horiz-adv-x="825" 
d="M412 76q58 0 108.5 21.5t87 59.5t57.5 88.5t21 109.5q0 58 -21 109t-57.5 89t-87 59.5t-108.5 21.5t-108 -21.5t-86.5 -59.5t-57.5 -89t-21 -109q0 -59 21 -109.5t57.5 -88.5t86.5 -59.5t108 -21.5zM412 -12q-77 0 -143.5 28.5t-116.5 78t-78.5 116.5t-28.5 144t28.5 144
t78.5 116.5t116.5 78t143.5 28.5t144 -28.5t116.5 -78t78 -116.5t28.5 -144t-28.5 -144t-78 -116.5t-116.5 -78t-144 -28.5zM364 929h99l-95 -159h-62zM531 929h99l-95 -159h-62z" />
    <glyph glyph-name="Omacron" unicode="&#x14c;" horiz-adv-x="825" 
d="M412 76q58 0 108.5 21.5t87 59.5t57.5 88.5t21 109.5q0 58 -21 109t-57.5 89t-87 59.5t-108.5 21.5t-108 -21.5t-86.5 -59.5t-57.5 -89t-21 -109q0 -59 21 -109.5t57.5 -88.5t86.5 -59.5t108 -21.5zM412 -12q-77 0 -143.5 28.5t-116.5 78t-78.5 116.5t-28.5 144t28.5 144
t78.5 116.5t116.5 78t143.5 28.5t144 -28.5t116.5 -78t78 -116.5t28.5 -144t-28.5 -144t-78 -116.5t-116.5 -78t-144 -28.5zM251 878h322v-73h-322v73z" />
    <glyph glyph-name="uni1ECC" unicode="&#x1ecc;" horiz-adv-x="825" 
d="M412 76q58 0 108.5 21.5t87 59.5t57.5 88.5t21 109.5q0 58 -21 109t-57.5 89t-87 59.5t-108.5 21.5t-108 -21.5t-86.5 -59.5t-57.5 -89t-21 -109q0 -59 21 -109.5t57.5 -88.5t86.5 -59.5t108 -21.5zM412 -12q-77 0 -143.5 28.5t-116.5 78t-78.5 116.5t-28.5 144t28.5 144
t78.5 116.5t116.5 78t143.5 28.5t144 -28.5t116.5 -78t78 -116.5t28.5 -144t-28.5 -144t-78 -116.5t-116.5 -78t-144 -28.5zM412 -190q-25 0 -42 17t-17 41t17 41.5t42 17.5q24 0 41 -17.5t17 -41.5t-17 -41t-41 -17z" />
    <glyph glyph-name="Racute" unicode="&#x154;" horiz-adv-x="626" 
d="M94 710h222q99 0 155 -53.5t57 -141.5q0 -44 -15.5 -79.5t-43.5 -61t-68 -39t-89 -13.5h-2l336 -322h-119l-340 324v-324h-93v710zM305 406q61 0 95.5 27.5t34.5 81.5t-34.5 81.5t-95.5 27.5h-118v-218h118zM338 929h109l-114 -159h-73z" />
    <glyph glyph-name="Rcaron" unicode="&#x158;" horiz-adv-x="626" 
d="M94 710h222q99 0 155 -53.5t57 -141.5q0 -44 -15.5 -79.5t-43.5 -61t-68 -39t-89 -13.5h-2l336 -322h-119l-340 324v-324h-93v710zM305 406q61 0 95.5 27.5t34.5 81.5t-34.5 81.5t-95.5 27.5h-118v-218h118zM128 848v75l166 -87l166 87v-75l-166 -87z" />
    <glyph glyph-name="uni0156" unicode="&#x156;" horiz-adv-x="626" 
d="M94 710h222q99 0 155 -53.5t57 -141.5q0 -44 -15.5 -79.5t-43.5 -61t-68 -39t-89 -13.5h-2l336 -322h-119l-340 324v-324h-93v710zM305 406q61 0 95.5 27.5t34.5 81.5t-34.5 81.5t-95.5 27.5h-118v-218h118zM266 -273l24 197h99l-72 -197h-51z" />
    <glyph glyph-name="Sacute" unicode="&#x15a;" horiz-adv-x="540" 
d="M257 -12q-60 0 -112.5 13t-87.5 39v104q15 -15 38.5 -27.5t51 -22t57.5 -14.5t58 -5q65 0 104.5 26.5t39.5 76.5q0 42 -23 72.5t-73 48.5l-97 36q-84 30 -119.5 79.5t-35.5 121.5q0 44 17.5 78.5t48.5 58.5t74.5 36.5t96.5 12.5q57 0 97 -10.5t62 -21.5v-94
q-32 17 -74 28t-84 11q-31 0 -57.5 -6.5t-46 -19t-30.5 -30.5t-11 -40q0 -45 22.5 -71t74.5 -45l88 -33q85 -30 124.5 -80.5t38.5 -128.5q0 -47 -17.5 -82.5t-49 -60.5t-76.5 -37.5t-99 -12.5zM328 929h109l-114 -159h-73z" />
    <glyph glyph-name="Scaron" unicode="&#x160;" horiz-adv-x="540" 
d="M257 -12q-60 0 -112.5 13t-87.5 39v104q15 -15 38.5 -27.5t51 -22t57.5 -14.5t58 -5q65 0 104.5 26.5t39.5 76.5q0 42 -23 72.5t-73 48.5l-97 36q-84 30 -119.5 79.5t-35.5 121.5q0 44 17.5 78.5t48.5 58.5t74.5 36.5t96.5 12.5q57 0 97 -10.5t62 -21.5v-94
q-32 17 -74 28t-84 11q-31 0 -57.5 -6.5t-46 -19t-30.5 -30.5t-11 -40q0 -45 22.5 -71t74.5 -45l88 -33q85 -30 124.5 -80.5t38.5 -128.5q0 -47 -17.5 -82.5t-49 -60.5t-76.5 -37.5t-99 -12.5zM118 848v75l166 -87l166 87v-75l-166 -87z" />
    <glyph glyph-name="Scedilla" unicode="&#x15e;" horiz-adv-x="540" 
d="M257 -12q-60 0 -112.5 13t-87.5 39v104q15 -15 38.5 -27.5t51 -22t57.5 -14.5t58 -5q65 0 104.5 26.5t39.5 76.5q0 42 -23 72.5t-73 48.5l-97 36q-84 30 -119.5 79.5t-35.5 121.5q0 44 17.5 78.5t48.5 58.5t74.5 36.5t96.5 12.5q57 0 97 -10.5t62 -21.5v-94
q-32 17 -74 28t-84 11q-31 0 -57.5 -6.5t-46 -19t-30.5 -30.5t-11 -40q0 -45 22.5 -71t74.5 -45l88 -33q85 -30 124.5 -80.5t38.5 -128.5q0 -47 -17.5 -82.5t-49 -60.5t-76.5 -37.5t-99 -12.5zM259 -194q-19 0 -41 3.5t-41 11.5v54q17 -8 37.5 -12t38.5 -4q20 0 38.5 5.5
t18.5 22.5q0 11 -11 16.5t-28 5.5q-14 0 -25 -2.5t-21 -6.5l-31 22l49 81h55l-32 -52q16 7 38 7q32 0 54 -18t22 -49q0 -42 -33.5 -63.5t-87.5 -21.5z" />
    <glyph glyph-name="Scircumflex" unicode="&#x15c;" horiz-adv-x="540" 
d="M257 -12q-60 0 -112.5 13t-87.5 39v104q15 -15 38.5 -27.5t51 -22t57.5 -14.5t58 -5q65 0 104.5 26.5t39.5 76.5q0 42 -23 72.5t-73 48.5l-97 36q-84 30 -119.5 79.5t-35.5 121.5q0 44 17.5 78.5t48.5 58.5t74.5 36.5t96.5 12.5q57 0 97 -10.5t62 -21.5v-94
q-32 17 -74 28t-84 11q-31 0 -57.5 -6.5t-46 -19t-30.5 -30.5t-11 -40q0 -45 22.5 -71t74.5 -45l88 -33q85 -30 124.5 -80.5t38.5 -128.5q0 -47 -17.5 -82.5t-49 -60.5t-76.5 -37.5t-99 -12.5zM118 836l166 87l166 -87v-75l-166 87l-166 -87v75z" />
    <glyph glyph-name="uni0218" unicode="&#x218;" horiz-adv-x="540" 
d="M257 -12q-60 0 -112.5 13t-87.5 39v104q15 -15 38.5 -27.5t51 -22t57.5 -14.5t58 -5q65 0 104.5 26.5t39.5 76.5q0 42 -23 72.5t-73 48.5l-97 36q-84 30 -119.5 79.5t-35.5 121.5q0 44 17.5 78.5t48.5 58.5t74.5 36.5t96.5 12.5q57 0 97 -10.5t62 -21.5v-94
q-32 17 -74 28t-84 11q-31 0 -57.5 -6.5t-46 -19t-30.5 -30.5t-11 -40q0 -45 22.5 -71t74.5 -45l88 -33q85 -30 124.5 -80.5t38.5 -128.5q0 -47 -17.5 -82.5t-49 -60.5t-76.5 -37.5t-99 -12.5zM205 -273l24 197h99l-72 -197h-51z" />
    <glyph glyph-name="Tcaron" unicode="&#x164;" horiz-adv-x="567" 
d="M238 622h-221v88h533v-88h-221v-622h-91v622zM117 848v75l166 -87l166 87v-75l-166 -87z" />
    <glyph glyph-name="uni0162" unicode="&#x162;" horiz-adv-x="567" 
d="M238 622h-221v88h533v-88h-221v-622h-91v622zM214 -273l24 197h99l-72 -197h-51z" />
    <glyph glyph-name="uni021A" unicode="&#x21a;" horiz-adv-x="567" 
d="M238 622h-221v88h533v-88h-221v-622h-91v622zM214 -273l24 197h99l-72 -197h-51z" />
    <glyph glyph-name="Ubreve" unicode="&#x16c;" horiz-adv-x="726" 
d="M363 -12q-62 0 -113 20t-87.5 57.5t-57 91t-20.5 119.5v434h93v-436q0 -96 50.5 -147t134.5 -51t134.5 51t50.5 147v436h93v-434q0 -66 -20.5 -119.5t-57 -91t-88 -57.5t-112.5 -20zM363 759q-33 0 -62 11t-50.5 32t-34 50.5t-12.5 65.5h58q0 -49 29.5 -75t71.5 -26
t71.5 26t29.5 75h58q0 -36 -12.5 -65.5t-34 -50.5t-50.5 -32t-62 -11z" />
    <glyph glyph-name="Uhungarumlaut" unicode="&#x170;" horiz-adv-x="726" 
d="M363 -12q-62 0 -113 20t-87.5 57.5t-57 91t-20.5 119.5v434h93v-436q0 -96 50.5 -147t134.5 -51t134.5 51t50.5 147v436h93v-434q0 -66 -20.5 -119.5t-57 -91t-88 -57.5t-112.5 -20zM315 929h99l-95 -159h-62zM482 929h99l-95 -159h-62z" />
    <glyph glyph-name="Umacron" unicode="&#x16a;" horiz-adv-x="726" 
d="M363 -12q-62 0 -113 20t-87.5 57.5t-57 91t-20.5 119.5v434h93v-436q0 -96 50.5 -147t134.5 -51t134.5 51t50.5 147v436h93v-434q0 -66 -20.5 -119.5t-57 -91t-88 -57.5t-112.5 -20zM202 878h322v-73h-322v73z" />
    <glyph glyph-name="Uogonek" unicode="&#x172;" horiz-adv-x="726" 
d="M420 -194q-40 0 -68 22t-29 57q-1 27 15 54t48 50q-7 -1 -12 -1h-10q-62 0 -113.5 20t-88.5 57.5t-57 91t-20 119.5v434h93v-436q0 -96 50.5 -147t134.5 -51t134.5 51t50.5 147v436h93v-434q0 -74 -24.5 -131.5t-69.5 -94.5q-22 -18 -46.5 -36.5t-44.5 -36t-34 -35
t-15 -33.5q-1 -14 9 -21.5t25 -7.5q29 0 48 11v-71q-13 -6 -29 -10t-40 -4z" />
    <glyph glyph-name="Uring" unicode="&#x16e;" horiz-adv-x="726" 
d="M363 -12q-62 0 -113 20t-87.5 57.5t-57 91t-20.5 119.5v434h93v-436q0 -96 50.5 -147t134.5 -51t134.5 51t50.5 147v436h93v-434q0 -66 -20.5 -119.5t-57 -91t-88 -57.5t-112.5 -20zM363 753q-25 0 -47 9.5t-38.5 26t-26 38t-9.5 46.5t9.5 46.5t26 38t38.5 26t47 9.5
t47 -9.5t38.5 -26t26.5 -38t10 -46.5t-10 -46.5t-26.5 -38t-38.5 -26t-47 -9.5zM363 804q29 0 50 20t21 49t-21 49.5t-50 20.5t-49 -20.5t-20 -49.5t20 -49t49 -20z" />
    <glyph glyph-name="Utilde" unicode="&#x168;" horiz-adv-x="726" 
d="M363 -12q-62 0 -113 20t-87.5 57.5t-57 91t-20.5 119.5v434h93v-436q0 -96 50.5 -147t134.5 -51t134.5 51t50.5 147v436h93v-434q0 -66 -20.5 -119.5t-57 -91t-88 -57.5t-112.5 -20zM193 804q8 43 37 69t69 26q19 0 37.5 -7t34.5 -15t30.5 -15t26.5 -7q33 0 43 44h66
l-4 -19q-8 -42 -36.5 -68t-69.5 -26q-20 0 -38 7t-34 15l-30 15t-26 7q-32 0 -44 -44h-65z" />
    <glyph glyph-name="uni1EE4" unicode="&#x1ee4;" horiz-adv-x="726" 
d="M363 -12q-62 0 -113 20t-87.5 57.5t-57 91t-20.5 119.5v434h93v-436q0 -96 50.5 -147t134.5 -51t134.5 51t50.5 147v436h93v-434q0 -66 -20.5 -119.5t-57 -91t-88 -57.5t-112.5 -20zM363 -190q-25 0 -42 17t-17 41t17 41.5t42 17.5q24 0 41 -17.5t17 -41.5t-17 -41
t-41 -17z" />
    <glyph glyph-name="Wacute" unicode="&#x1e82;" horiz-adv-x="933" 
d="M7 710h98l168 -482l193 494l193 -494l169 482h98l-259 -722l-201 511l-200 -511zM511 929h109l-114 -159h-73z" />
    <glyph glyph-name="Wcircumflex" unicode="&#x174;" horiz-adv-x="933" 
d="M7 710h98l168 -482l193 494l193 -494l169 482h98l-259 -722l-201 511l-200 -511zM300 836l166 87l166 -87v-75l-166 87l-166 -87v75z" />
    <glyph glyph-name="Wdieresis" unicode="&#x1e84;" horiz-adv-x="933" 
d="M7 710h98l168 -482l193 494l193 -494l169 482h98l-259 -722l-201 511l-200 -511zM354 785q-25 0 -42 17t-17 41t17 41.5t42 17.5q24 0 41 -17.5t17 -41.5t-17 -41t-41 -17zM579 785q-24 0 -41.5 17t-17.5 41t17.5 41.5t41.5 17.5t41 -17.5t17 -41.5t-17 -41t-41 -17z" />
    <glyph glyph-name="Wgrave" unicode="&#x1e80;" horiz-adv-x="933" 
d="M7 710h98l168 -482l193 494l193 -494l169 482h98l-259 -722l-201 511l-200 -511zM427 770l-115 159h109l78 -159h-72z" />
    <glyph glyph-name="Ycircumflex" unicode="&#x176;" horiz-adv-x="671" 
d="M289 301l-276 409h111l211 -316l212 316h111l-277 -410v-300h-92v301zM169 836l166 87l166 -87v-75l-166 87l-166 -87v75z" />
    <glyph glyph-name="Ydieresis" unicode="&#x178;" horiz-adv-x="671" 
d="M289 301l-276 409h111l211 -316l212 316h111l-277 -410v-300h-92v301zM223 785q-25 0 -42 17t-17 41t17 41.5t42 17.5q24 0 41 -17.5t17 -41.5t-17 -41t-41 -17zM448 785q-24 0 -41.5 17t-17.5 41t17.5 41.5t41.5 17.5t41 -17.5t17 -41.5t-17 -41t-41 -17z" />
    <glyph glyph-name="Ygrave" unicode="&#x1ef2;" horiz-adv-x="671" 
d="M289 301l-276 409h111l211 -316l212 316h111l-277 -410v-300h-92v301zM295 770l-115 159h109l78 -159h-72z" />
    <glyph glyph-name="uni0232" unicode="&#x232;" horiz-adv-x="671" 
d="M289 301l-276 409h111l211 -316l212 316h111l-277 -410v-300h-92v301zM174 878h322v-73h-322v73z" />
    <glyph glyph-name="Zacute" unicode="&#x179;" horiz-adv-x="591" 
d="M404 622h-352v88h509l-396 -622h397v-88h-554zM350 929h109l-114 -159h-73z" />
    <glyph glyph-name="Zcaron" unicode="&#x17d;" horiz-adv-x="591" 
d="M404 622h-352v88h509l-396 -622h397v-88h-554zM140 848v75l166 -87l166 87v-75l-166 -87z" />
    <glyph glyph-name="Zdotaccent" unicode="&#x17b;" horiz-adv-x="591" 
d="M404 622h-352v88h509l-396 -622h397v-88h-554zM306 785q-25 0 -42 17t-17 41t17 41.5t42 17.5q24 0 41 -17.5t17 -41.5t-17 -41t-41 -17z" />
    <glyph glyph-name="uni1E9E" unicode="&#x1e9e;" horiz-adv-x="633" 
d="M94 710h441l-127 -266q87 -17 133.5 -70t46.5 -146q0 -56 -19 -99t-52.5 -71.5t-80.5 -43t-103 -14.5h-37v88h44q34 0 62.5 9t49.5 26.5t32.5 43.5t11.5 61t-11.5 61t-32.5 43.5t-49.5 26.5t-62.5 9h-59l122 258h-216v-626h-93v710z" />
    <glyph glyph-name="abreve" unicode="&#x103;" horiz-adv-x="624" 
d="M294 -10q-56 0 -102.5 20.5t-79.5 56t-51.5 83t-18.5 100.5t18.5 100.5t51.5 83t79.5 56t102.5 20.5q49 0 91 -16.5t72 -48.5v55h86v-500h-86v55q-30 -32 -72 -48.5t-91 -16.5zM301 69q56 0 95 24t61 59v197q-22 35 -61 58.5t-95 23.5q-38 0 -69 -14t-53.5 -39t-35 -58
t-12.5 -70q0 -38 12.5 -70.5t35 -57.5t53.5 -39t69 -14zM333 543q-33 0 -62.5 11t-51 32.5t-34 52.5t-11.5 71h58q-2 -56 28.5 -83t72.5 -27t72.5 27t28.5 83h58q1 -40 -11.5 -71t-34 -52.5t-51 -32.5t-62.5 -11z" />
    <glyph glyph-name="amacron" unicode="&#x101;" horiz-adv-x="624" 
d="M294 -10q-56 0 -102.5 20.5t-79.5 56t-51.5 83t-18.5 100.5t18.5 100.5t51.5 83t79.5 56t102.5 20.5q49 0 91 -16.5t72 -48.5v55h86v-500h-86v55q-30 -32 -72 -48.5t-91 -16.5zM301 69q56 0 95 24t61 59v197q-22 35 -61 58.5t-95 23.5q-38 0 -69 -14t-53.5 -39t-35 -58
t-12.5 -70q0 -38 12.5 -70.5t35 -57.5t53.5 -39t69 -14zM172 710h322v-69h-322v69z" />
    <glyph glyph-name="aogonek" unicode="&#x105;" horiz-adv-x="624" 
d="M294 -10q-56 0 -102.5 20.5t-79.5 56t-51.5 83t-18.5 100.5t18.5 100.5t51.5 83t79.5 56t102.5 20.5q49 0 91 -16.5t72 -48.5v55h86v-500h-86v55q-30 -32 -72 -48.5t-91 -16.5zM301 69q56 0 95 24t61 59v197q-22 35 -61 58.5t-95 23.5q-38 0 -69 -14t-53.5 -39t-35 -58
t-12.5 -70q0 -38 12.5 -70.5t35 -57.5t53.5 -39t69 -14zM479 -194q-48 0 -72 26.5t-24 62.5t22.5 59t51.5 46h86q-42 -26 -63 -46t-21 -45q0 -17 12 -25.5t30 -8.5q10 0 22 2.5t20 7.5v-64q-13 -7 -28.5 -11t-35.5 -4z" />
    <glyph glyph-name="cacute" unicode="&#x107;" horiz-adv-x="477" 
d="M312 -10q-60 0 -109.5 19t-85 53.5t-55.5 82t-20 105.5t20 105.5t55.5 82t85 53.5t109.5 19q34 0 67 -5.5t57 -16.5v-89q-24 14 -56.5 22.5t-65.5 8.5q-84 0 -134 -48t-50 -132t50 -132t134 -48q33 0 65.5 8.5t56.5 22.5v-89q-24 -11 -57 -16.5t-67 -5.5zM335 710h109
l-125 -153h-72z" />
    <glyph glyph-name="ccaron" unicode="&#x10d;" horiz-adv-x="477" 
d="M312 -10q-60 0 -109.5 19t-85 53.5t-55.5 82t-20 105.5t20 105.5t55.5 82t85 53.5t109.5 19q34 0 67 -5.5t57 -16.5v-89q-24 14 -56.5 22.5t-65.5 8.5q-84 0 -134 -48t-50 -132t50 -132t134 -48q33 0 65.5 8.5t56.5 22.5v-89q-24 -11 -57 -16.5t-67 -5.5zM125 644v78
l155 -96l155 96v-78l-155 -96z" />
    <glyph glyph-name="ccircumflex" unicode="&#x109;" horiz-adv-x="477" 
d="M312 -10q-60 0 -109.5 19t-85 53.5t-55.5 82t-20 105.5t20 105.5t55.5 82t85 53.5t109.5 19q34 0 67 -5.5t57 -16.5v-89q-24 14 -56.5 22.5t-65.5 8.5q-84 0 -134 -48t-50 -132t50 -132t134 -48q33 0 65.5 8.5t56.5 22.5v-89q-24 -11 -57 -16.5t-67 -5.5zM435 626v-78
l-155 96l-155 -96v78l155 96z" />
    <glyph glyph-name="cdotaccent" unicode="&#x10b;" horiz-adv-x="477" 
d="M312 -10q-60 0 -109.5 19t-85 53.5t-55.5 82t-20 105.5t20 105.5t55.5 82t85 53.5t109.5 19q34 0 67 -5.5t57 -16.5v-89q-24 14 -56.5 22.5t-65.5 8.5q-84 0 -134 -48t-50 -132t50 -132t134 -48q33 0 65.5 8.5t56.5 22.5v-89q-24 -11 -57 -16.5t-67 -5.5zM280 596
q-25 0 -42 17t-17 41t17 41.5t42 17.5q24 0 41 -17.5t17 -41.5t-17 -41t-41 -17z" />
    <glyph glyph-name="dcaron" unicode="&#x10f;" horiz-adv-x="624" 
d="M294 -10q-56 0 -102.5 20.5t-79.5 56t-51.5 83t-18.5 100.5t18.5 100.5t51.5 83t79.5 56t102.5 20.5q49 0 91 -16.5t72 -48.5v265h86v-710h-86v55q-30 -32 -72 -48.5t-91 -16.5zM301 69q56 0 95 24t61 59v197q-22 35 -61 58.5t-95 23.5q-38 0 -69 -14t-53.5 -39t-35 -58
t-12.5 -70q0 -38 12.5 -70.5t35 -57.5t53.5 -39t69 -14zM603 710h86l-50 -165h-60z" />
    <glyph glyph-name="dcroat" unicode="&#x111;" horiz-adv-x="624" 
d="M294 -10q-56 0 -102.5 20.5t-79.5 56t-51.5 83t-18.5 100.5t18.5 100.5t51.5 83t79.5 56t102.5 20.5q49 0 91 -16.5t72 -48.5v265h86v-710h-86v55q-30 -32 -72 -48.5t-91 -16.5zM301 69q56 0 95 24t61 59v197q-22 35 -61 58.5t-95 23.5q-38 0 -69 -14t-53.5 -39t-35 -58
t-12.5 -70q0 -38 12.5 -70.5t35 -57.5t53.5 -39t69 -14zM298 577v68h323v-68h-323z" />
    <glyph glyph-name="ebreve" unicode="&#x115;" horiz-adv-x="555" 
d="M310 -10q-55 0 -103.5 16.5t-84.5 49t-57.5 81t-21.5 113.5q0 57 17.5 104.5t50 82t77.5 54t101 19.5t99.5 -21t73 -58.5t43.5 -89t11 -112.5h-383q1 -44 17 -74.5t41.5 -50t57.5 -28t66 -8.5q52 0 89 12t68 31v-88q-34 -15 -70 -24t-92 -9zM426 298q-8 64 -44.5 100.5
t-94.5 36.5q-25 0 -49.5 -8t-45.5 -24.5t-36 -42.5t-20 -62h290zM289 543q-33 0 -62.5 11t-51 32.5t-34 52.5t-11.5 71h58q-2 -56 28.5 -83t72.5 -27t72.5 27t28.5 83h58q1 -40 -11.5 -71t-34 -52.5t-51 -32.5t-62.5 -11z" />
    <glyph glyph-name="ecaron" unicode="&#x11b;" horiz-adv-x="555" 
d="M310 -10q-55 0 -103.5 16.5t-84.5 49t-57.5 81t-21.5 113.5q0 57 17.5 104.5t50 82t77.5 54t101 19.5t99.5 -21t73 -58.5t43.5 -89t11 -112.5h-383q1 -44 17 -74.5t41.5 -50t57.5 -28t66 -8.5q52 0 89 12t68 31v-88q-34 -15 -70 -24t-92 -9zM426 298q-8 64 -44.5 100.5
t-94.5 36.5q-25 0 -49.5 -8t-45.5 -24.5t-36 -42.5t-20 -62h290zM134 644v78l155 -96l155 96v-78l-155 -96z" />
    <glyph glyph-name="emacron" unicode="&#x113;" horiz-adv-x="555" 
d="M310 -10q-55 0 -103.5 16.5t-84.5 49t-57.5 81t-21.5 113.5q0 57 17.5 104.5t50 82t77.5 54t101 19.5t99.5 -21t73 -58.5t43.5 -89t11 -112.5h-383q1 -44 17 -74.5t41.5 -50t57.5 -28t66 -8.5q52 0 89 12t68 31v-88q-34 -15 -70 -24t-92 -9zM426 298q-8 64 -44.5 100.5
t-94.5 36.5q-25 0 -49.5 -8t-45.5 -24.5t-36 -42.5t-20 -62h290zM128 710h322v-69h-322v69z" />
    <glyph glyph-name="eogonek" unicode="&#x119;" horiz-adv-x="555" 
d="M310 -10q-55 0 -103.5 16.5t-84.5 49t-57.5 81t-21.5 113.5q0 57 17.5 104.5t50 82t77.5 54t101 19.5t99.5 -21t73 -58.5t43.5 -89t11 -112.5h-383q1 -44 17 -74.5t41.5 -50t57.5 -28t66 -8.5q52 0 89 12t68 31v-88q-42 -39 -63 -63t-21 -50q0 -17 12 -26t30 -9
q10 0 22 2t20 7v-63q-12 -7 -28 -11t-36 -4q-48 0 -72 26.5t-24 62.5q0 28 15.5 53t41.5 46q-13 -2 -27.5 -3t-31.5 -1zM426 298q-8 64 -44.5 100.5t-94.5 36.5q-25 0 -49.5 -8t-45.5 -24.5t-36 -42.5t-20 -62h290z" />
    <glyph glyph-name="edotaccent" unicode="&#x117;" horiz-adv-x="555" 
d="M310 -10q-55 0 -103.5 16.5t-84.5 49t-57.5 81t-21.5 113.5q0 57 17.5 104.5t50 82t77.5 54t101 19.5t99.5 -21t73 -58.5t43.5 -89t11 -112.5h-383q1 -44 17 -74.5t41.5 -50t57.5 -28t66 -8.5q52 0 89 12t68 31v-88q-34 -15 -70 -24t-92 -9zM426 298q-8 64 -44.5 100.5
t-94.5 36.5q-25 0 -49.5 -8t-45.5 -24.5t-36 -42.5t-20 -62h290zM289 596q-25 0 -42 17t-17 41t17 41.5t42 17.5q24 0 41 -17.5t17 -41.5t-17 -41t-41 -17z" />
    <glyph glyph-name="gbreve" unicode="&#x11f;" horiz-adv-x="625" 
d="M302 87q55 0 94.5 23.5t61.5 58.5v180q-22 35 -61.5 58.5t-94.5 23.5q-37 0 -68.5 -13t-54.5 -36t-35.5 -54.5t-12.5 -68.5t13 -68.5t35.5 -54.5t54 -36t68.5 -13zM277 -194q-48 0 -87.5 5t-75.5 18v86q35 -15 74.5 -22.5t87.5 -7.5q36 0 69 10t58 31t40 54t15 79v14
q-30 -33 -72.5 -49t-91.5 -16q-54 0 -100.5 19.5t-80 53t-52 79.5t-18.5 99t19 99t52.5 79.5t79.5 53t100 19.5q49 0 91.5 -16.5t72.5 -48.5v55h86v-445q0 -63 -20.5 -110t-56.5 -78t-84.5 -46t-105.5 -15zM319 543q-33 0 -62.5 11t-51 32.5t-34 52.5t-11.5 71h58
q-2 -56 28.5 -83t72.5 -27t72.5 27t28.5 83h58q1 -40 -11.5 -71t-34 -52.5t-51 -32.5t-62.5 -11z" />
    <glyph glyph-name="gcircumflex" unicode="&#x11d;" horiz-adv-x="625" 
d="M302 87q55 0 94.5 23.5t61.5 58.5v180q-22 35 -61.5 58.5t-94.5 23.5q-37 0 -68.5 -13t-54.5 -36t-35.5 -54.5t-12.5 -68.5t13 -68.5t35.5 -54.5t54 -36t68.5 -13zM277 -194q-48 0 -87.5 5t-75.5 18v86q35 -15 74.5 -22.5t87.5 -7.5q36 0 69 10t58 31t40 54t15 79v14
q-30 -33 -72.5 -49t-91.5 -16q-54 0 -100.5 19.5t-80 53t-52 79.5t-18.5 99t19 99t52.5 79.5t79.5 53t100 19.5q49 0 91.5 -16.5t72.5 -48.5v55h86v-445q0 -63 -20.5 -110t-56.5 -78t-84.5 -46t-105.5 -15zM474 626v-78l-155 96l-155 -96v78l155 96z" />
    <glyph glyph-name="uni0123" unicode="&#x123;" horiz-adv-x="625" 
d="M302 87q55 0 94.5 23.5t61.5 58.5v180q-22 35 -61.5 58.5t-94.5 23.5q-37 0 -68.5 -13t-54.5 -36t-35.5 -54.5t-12.5 -68.5t13 -68.5t35.5 -54.5t54 -36t68.5 -13zM277 -194q-48 0 -87.5 5t-75.5 18v86q35 -15 74.5 -22.5t87.5 -7.5q36 0 69 10t58 31t40 54t15 79v14
q-30 -33 -72.5 -49t-91.5 -16q-54 0 -100.5 19.5t-80 53t-52 79.5t-18.5 99t19 99t52.5 79.5t79.5 53t100 19.5q49 0 91.5 -16.5t72.5 -48.5v55h86v-445q0 -63 -20.5 -110t-56.5 -78t-84.5 -46t-105.5 -15zM382.977 796.951l-23.998 -196.988h-98.9941l71.9951 196.988
h50.9971z" />
    <glyph glyph-name="gdotaccent" unicode="&#x121;" horiz-adv-x="625" 
d="M302 87q55 0 94.5 23.5t61.5 58.5v180q-22 35 -61.5 58.5t-94.5 23.5q-37 0 -68.5 -13t-54.5 -36t-35.5 -54.5t-12.5 -68.5t13 -68.5t35.5 -54.5t54 -36t68.5 -13zM277 -194q-48 0 -87.5 5t-75.5 18v86q35 -15 74.5 -22.5t87.5 -7.5q36 0 69 10t58 31t40 54t15 79v14
q-30 -33 -72.5 -49t-91.5 -16q-54 0 -100.5 19.5t-80 53t-52 79.5t-18.5 99t19 99t52.5 79.5t79.5 53t100 19.5q49 0 91.5 -16.5t72.5 -48.5v55h86v-445q0 -63 -20.5 -110t-56.5 -78t-84.5 -46t-105.5 -15zM319 596q-25 0 -42 17t-17 41t17 41.5t42 17.5q24 0 41 -17.5
t17 -41.5t-17 -41t-41 -17z" />
    <glyph glyph-name="hbar" unicode="&#x127;" horiz-adv-x="589" 
d="M81 0v710h86v-273q26 38 68 55.5t90 17.5q42 0 77 -14t60 -40.5t39 -64t14 -84.5v-307h-85v294q0 66 -33.5 101.5t-91.5 35.5q-53 0 -88 -27.5t-50 -71.5v-332h-86zM11 577v68h323v-68h-323z" />
    <glyph glyph-name="hcircumflex" unicode="&#x125;" horiz-adv-x="589" 
d="M81 0v710h86v-273q26 38 68 55.5t90 17.5q42 0 77 -14t60 -40.5t39 -64t14 -84.5v-307h-85v294q0 66 -33.5 101.5t-91.5 35.5q-53 0 -88 -27.5t-50 -71.5v-332h-86zM135 836l166 87l166 -87v-75l-166 87l-166 -87v75z" />
    <glyph glyph-name="dotlessi" unicode="&#x131;" horiz-adv-x="249" 
d="M81 500h86v-500h-86v500z" />
    <glyph glyph-name="ibreve" unicode="&#x12d;" horiz-adv-x="249" 
d="M81 500h86v-500h-86v500zM124 543q-33 0 -62.5 11t-51 32.5t-34 52.5t-11.5 71h58q-2 -56 28.5 -83t72.5 -27t72.5 27t28.5 83h58q1 -40 -11.5 -71t-34 -52.5t-51 -32.5t-62.5 -11z" />
    <glyph glyph-name="imacron" unicode="&#x12b;" horiz-adv-x="249" 
d="M81 500h86v-500h-86v500zM-37 710h322v-69h-322v69z" />
    <glyph glyph-name="iogonek" unicode="&#x12f;" horiz-adv-x="249" 
d="M125 603q-26 0 -44 18t-18 43q0 26 18 43.5t44 17.5t43.5 -17.5t17.5 -43.5q0 -25 -17.5 -43t-43.5 -18zM81 500h86v-500h-86v500zM103 -194q-48 0 -72 26.5t-24 62.5t22.5 59t51.5 46h86q-42 -26 -63 -46t-21 -45q0 -17 12 -25.5t30 -8.5q10 0 22 2.5t20 7.5v-64
q-13 -7 -28.5 -11t-35.5 -4z" />
    <glyph glyph-name="itilde" unicode="&#x129;" horiz-adv-x="249" 
d="M81 500h86v-500h-86v500zM-47 611q8 43 37 69t69 26q20 0 38 -7t34.5 -15t30.5 -15t26 -7q33 0 43 44h66l-3 -18q-8 -43 -37 -69t-69 -26q-20 0 -38 7t-34.5 15t-30.5 15t-26 7q-33 0 -43 -44h-66z" />
    <glyph glyph-name="uni1ECB" unicode="&#x1ecb;" horiz-adv-x="249" 
d="M125 603q-26 0 -44 18t-18 43q0 26 18 43.5t44 17.5t43.5 -17.5t17.5 -43.5q0 -25 -17.5 -43t-43.5 -18zM81 500h86v-500h-86v500zM125 -190q-25 0 -42 17t-17 41t17 41.5t42 17.5q24 0 41 -17.5t17 -41.5t-17 -41t-41 -17z" />
    <glyph glyph-name="uni0237" unicode="&#x237;" horiz-adv-x="257" 
d="M89 500h86v-543q0 -39 -11 -65.5t-31 -43.5t-47.5 -24.5t-60.5 -7.5h-45v80h29q39 0 59.5 14.5t20.5 59.5v530z" />
    <glyph glyph-name="jcircumflex" unicode="&#x135;" horiz-adv-x="257" 
d="M89 500h86v-543q0 -39 -11 -65.5t-31 -43.5t-47.5 -24.5t-60.5 -7.5h-45v80h29q39 0 59.5 14.5t20.5 59.5v530zM287 626v-78l-155 96l-155 -96v78l155 96z" />
    <glyph glyph-name="uni0137" unicode="&#x137;" horiz-adv-x="541" 
d="M81 710h86v-710h-86v710zM172 278l219 222h108l-217 -221l272 -279h-109zM227 -273l24 197h99l-72 -197h-51z" />
    <glyph glyph-name="lacute" unicode="&#x13a;" horiz-adv-x="249" 
d="M81 710h86v-710h-86v710zM179 920h109l-125 -153h-72z" />
    <glyph glyph-name="lcaron" unicode="&#x13e;" horiz-adv-x="249" 
d="M81 710h86v-710h-86v710zM228 710h86l-50 -165h-60z" />
    <glyph glyph-name="uni013C" unicode="&#x13c;" horiz-adv-x="249" 
d="M81 710h86v-710h-86v710zM50 -273l24 197h99l-72 -197h-51z" />
    <glyph glyph-name="ldot" unicode="&#x140;" horiz-adv-x="383" 
d="M81 710h86v-710h-86v710zM317 317q-25 0 -42 17t-17 41t17 41.5t42 17.5q24 0 41 -17.5t17 -41.5t-17 -41t-41 -17z" />
    <glyph glyph-name="lslash" unicode="&#x142;" horiz-adv-x="319" 
d="M118 710h86v-710h-86v710zM39 257v78l244 156v-77z" />
    <glyph glyph-name="nacute" unicode="&#x144;" horiz-adv-x="589" 
d="M81 500h86v-63q26 38 68 55.5t90 17.5q42 0 77 -14t60 -40.5t39 -64t14 -84.5v-307h-85v294q0 66 -33.5 101.5t-91.5 35.5q-53 0 -88 -27.5t-50 -71.5v-332h-86v500zM353 710h109l-125 -153h-72z" />
    <glyph glyph-name="ncaron" unicode="&#x148;" horiz-adv-x="589" 
d="M81 500h86v-63q26 38 68 55.5t90 17.5q42 0 77 -14t60 -40.5t39 -64t14 -84.5v-307h-85v294q0 66 -33.5 101.5t-91.5 35.5q-53 0 -88 -27.5t-50 -71.5v-332h-86v500zM143 644v78l155 -96l155 96v-78l-155 -96z" />
    <glyph glyph-name="uni0146" unicode="&#x146;" horiz-adv-x="589" 
d="M81 500h86v-63q26 38 68 55.5t90 17.5q42 0 77 -14t60 -40.5t39 -64t14 -84.5v-307h-85v294q0 66 -33.5 101.5t-91.5 35.5q-53 0 -88 -27.5t-50 -71.5v-332h-86v500zM224 -273l24 197h99l-72 -197h-51z" />
    <glyph glyph-name="oe" unicode="&#x153;" horiz-adv-x="985" 
d="M741 -10q-71 0 -130 26.5t-95 80.5q-35 -49 -90 -78t-123 -29q-57 0 -105 20.5t-83 55.5t-54.5 82.5t-19.5 101.5t19.5 101.5t54.5 82.5t83 55.5t105 20.5q68 0 123 -29t90 -78q32 50 83.5 78.5t120.5 28.5q55 0 98.5 -21t73 -58.5t44 -89t11.5 -112.5h-384
q2 -44 18.5 -74.5t41.5 -50t57 -28t66 -8.5q51 0 88.5 12t68.5 31v-88q-35 -15 -70.5 -24t-91.5 -9zM303 70q39 0 71 14t54.5 38.5t35 57t12.5 70.5q0 37 -12.5 70t-35 57.5t-54.5 38.5t-71 14t-71 -14t-55 -38.5t-35.5 -57.5t-12.5 -70q0 -38 12.5 -70.5t35.5 -57t55 -38.5
t71 -14zM717 435q-24 0 -49 -8t-46 -24.5t-36 -42.5t-19 -62h289q-8 64 -44.5 100.5t-94.5 36.5z" />
    <glyph glyph-name="obreve" unicode="&#x14f;" horiz-adv-x="606" 
d="M303 -10q-57 0 -105 20.5t-83 55.5t-54.5 82.5t-19.5 101.5t19.5 101.5t54.5 82.5t83 55.5t105 20.5q56 0 104 -20.5t83 -55.5t54.5 -82.5t19.5 -101.5t-19.5 -101.5t-54.5 -82.5t-83 -55.5t-104 -20.5zM303 70q39 0 71 14t54.5 38.5t35 57t12.5 70.5q0 37 -12.5 70
t-35 57.5t-54.5 38.5t-71 14t-71 -14t-55 -38.5t-35.5 -57.5t-12.5 -70q0 -38 12.5 -70.5t35.5 -57t55 -38.5t71 -14zM303 543q-33 0 -62.5 11t-51 32.5t-34 52.5t-11.5 71h58q-2 -56 28.5 -83t72.5 -27t72.5 27t28.5 83h58q1 -40 -11.5 -71t-34 -52.5t-51 -32.5t-62.5 -11z
" />
    <glyph glyph-name="ohungarumlaut" unicode="&#x151;" horiz-adv-x="606" 
d="M303 -10q-57 0 -105 20.5t-83 55.5t-54.5 82.5t-19.5 101.5t19.5 101.5t54.5 82.5t83 55.5t105 20.5q56 0 104 -20.5t83 -55.5t54.5 -82.5t19.5 -101.5t-19.5 -101.5t-54.5 -82.5t-83 -55.5t-104 -20.5zM303 70q39 0 71 14t54.5 38.5t35 57t12.5 70.5q0 37 -12.5 70
t-35 57.5t-54.5 38.5t-71 14t-71 -14t-55 -38.5t-35.5 -57.5t-12.5 -70q0 -38 12.5 -70.5t35.5 -57t55 -38.5t71 -14zM250 710h99l-91 -153h-63zM417 710h100l-92 -153h-62z" />
    <glyph glyph-name="omacron" unicode="&#x14d;" horiz-adv-x="606" 
d="M303 -10q-57 0 -105 20.5t-83 55.5t-54.5 82.5t-19.5 101.5t19.5 101.5t54.5 82.5t83 55.5t105 20.5q56 0 104 -20.5t83 -55.5t54.5 -82.5t19.5 -101.5t-19.5 -101.5t-54.5 -82.5t-83 -55.5t-104 -20.5zM303 70q39 0 71 14t54.5 38.5t35 57t12.5 70.5q0 37 -12.5 70
t-35 57.5t-54.5 38.5t-71 14t-71 -14t-55 -38.5t-35.5 -57.5t-12.5 -70q0 -38 12.5 -70.5t35.5 -57t55 -38.5t71 -14zM142 710h322v-69h-322v69z" />
    <glyph glyph-name="uni1ECD" unicode="&#x1ecd;" horiz-adv-x="606" 
d="M303 -10q-57 0 -105 20.5t-83 55.5t-54.5 82.5t-19.5 101.5t19.5 101.5t54.5 82.5t83 55.5t105 20.5q56 0 104 -20.5t83 -55.5t54.5 -82.5t19.5 -101.5t-19.5 -101.5t-54.5 -82.5t-83 -55.5t-104 -20.5zM303 70q39 0 71 14t54.5 38.5t35 57t12.5 70.5q0 37 -12.5 70
t-35 57.5t-54.5 38.5t-71 14t-71 -14t-55 -38.5t-35.5 -57.5t-12.5 -70q0 -38 12.5 -70.5t35.5 -57t55 -38.5t71 -14zM303 -190q-25 0 -42 17t-17 41t17 41.5t42 17.5q24 0 41 -17.5t17 -41.5t-17 -41t-41 -17z" />
    <glyph glyph-name="racute" unicode="&#x155;" horiz-adv-x="365" 
d="M81 500h86v-71q15 32 53 54t88 22h38v-85h-46q-56 0 -87 -24.5t-46 -71.5v-324h-86v500zM268 710h109l-125 -153h-72z" />
    <glyph glyph-name="rcaron" unicode="&#x159;" horiz-adv-x="365" 
d="M81 500h86v-71q15 32 53 54t88 22h38v-85h-46q-56 0 -87 -24.5t-46 -71.5v-324h-86v500zM58 644v78l155 -96l155 96v-78l-155 -96z" />
    <glyph glyph-name="uni0157" unicode="&#x157;" horiz-adv-x="365" 
d="M81 500h86v-71q15 32 53 54t88 22h38v-85h-46q-56 0 -87 -24.5t-46 -71.5v-324h-86v500zM51 -273l24 197h99l-72 -197h-51z" />
    <glyph glyph-name="sacute" unicode="&#x15b;" horiz-adv-x="440" 
d="M217 -10q-45 0 -88 7.5t-72 22.5v86q12 -8 29 -15t38 -12.5t44 -9t46 -3.5q48 0 75 18t27 50q0 27 -19.5 46t-66.5 33l-53 16q-63 19 -96 53.5t-33 91.5q0 66 52 101t136 35q32 0 66.5 -5.5t57.5 -16.5v-82q-21 14 -56 22t-67 8q-21 0 -40 -3t-33.5 -9.5t-22.5 -18
t-8 -28.5q-1 -26 16 -41.5t60 -29.5l54 -16q69 -20 104 -56t35 -94q0 -74 -48.5 -112t-136.5 -38zM268 710h109l-125 -153h-72z" />
    <glyph glyph-name="scaron" unicode="&#x161;" horiz-adv-x="440" 
d="M217 -10q-45 0 -88 7.5t-72 22.5v86q12 -8 29 -15t38 -12.5t44 -9t46 -3.5q48 0 75 18t27 50q0 27 -19.5 46t-66.5 33l-53 16q-63 19 -96 53.5t-33 91.5q0 66 52 101t136 35q32 0 66.5 -5.5t57.5 -16.5v-82q-21 14 -56 22t-67 8q-21 0 -40 -3t-33.5 -9.5t-22.5 -18
t-8 -28.5q-1 -26 16 -41.5t60 -29.5l54 -16q69 -20 104 -56t35 -94q0 -74 -48.5 -112t-136.5 -38zM58 644v78l155 -96l155 96v-78l-155 -96z" />
    <glyph glyph-name="scedilla" unicode="&#x15f;" horiz-adv-x="440" 
d="M217 -10q-45 0 -88 7.5t-72 22.5v86q12 -8 29 -15t38 -12.5t44 -9t46 -3.5q48 0 75 18t27 50q0 27 -19.5 46t-66.5 33l-53 16q-63 19 -96 53.5t-33 91.5q0 66 52 101t136 35q32 0 66.5 -5.5t57.5 -16.5v-82q-21 14 -56 22t-67 8q-21 0 -40 -3t-33.5 -9.5t-22.5 -18
t-8 -28.5q-1 -26 16 -41.5t60 -29.5l54 -16q69 -20 104 -56t35 -94q0 -74 -48.5 -112t-136.5 -38zM208 -194q-21 0 -41 3.5t-40 9.5v54q16 -7 36.5 -10.5t38.5 -3.5q20 0 38.5 6t18.5 22q0 11 -11 16.5t-28 5.5q-14 0 -25 -2.5t-21 -6.5l-31 22l49 81h55l-32 -52q16 7 38 7
q32 0 54 -17.5t22 -49.5q0 -41 -33.5 -63t-87.5 -22z" />
    <glyph glyph-name="scircumflex" unicode="&#x15d;" horiz-adv-x="440" 
d="M217 -10q-45 0 -88 7.5t-72 22.5v86q12 -8 29 -15t38 -12.5t44 -9t46 -3.5q48 0 75 18t27 50q0 27 -19.5 46t-66.5 33l-53 16q-63 19 -96 53.5t-33 91.5q0 66 52 101t136 35q32 0 66.5 -5.5t57.5 -16.5v-82q-21 14 -56 22t-67 8q-21 0 -40 -3t-33.5 -9.5t-22.5 -18
t-8 -28.5q-1 -26 16 -41.5t60 -29.5l54 -16q69 -20 104 -56t35 -94q0 -74 -48.5 -112t-136.5 -38zM368 626v-78l-155 96l-155 -96v78l155 96z" />
    <glyph glyph-name="uni0219" unicode="&#x219;" horiz-adv-x="440" 
d="M217 -10q-45 0 -88 7.5t-72 22.5v86q12 -8 29 -15t38 -12.5t44 -9t46 -3.5q48 0 75 18t27 50q0 27 -19.5 46t-66.5 33l-53 16q-63 19 -96 53.5t-33 91.5q0 66 52 101t136 35q32 0 66.5 -5.5t57.5 -16.5v-82q-21 14 -56 22t-67 8q-21 0 -40 -3t-33.5 -9.5t-22.5 -18
t-8 -28.5q-1 -26 16 -41.5t60 -29.5l54 -16q69 -20 104 -56t35 -94q0 -74 -48.5 -112t-136.5 -38zM149 -273l24 197h99l-72 -197h-51z" />
    <glyph glyph-name="tcaron" unicode="&#x165;" horiz-adv-x="385" 
d="M132 421h-116v79h116v125l86 51v-176h154v-79h-154v-421h-86v421zM277 710h86l-50 -165h-60z" />
    <glyph glyph-name="uni0163" unicode="&#x163;" horiz-adv-x="385" 
d="M132 421h-116v79h116v125l86 51v-176h154v-79h-154v-421h-86v421zM101 -273l24 197h99l-72 -197h-51z" />
    <glyph glyph-name="uni021B" unicode="&#x21b;" horiz-adv-x="385" 
d="M132 421h-116v79h116v125l86 51v-176h154v-79h-154v-421h-86v421zM101 -273l24 197h99l-72 -197h-51z" />
    <glyph glyph-name="ubreve" unicode="&#x16d;" horiz-adv-x="579" 
d="M498 0h-86v63q-26 -38 -67.5 -55.5t-83.5 -17.5q-41 0 -75.5 14t-59.5 40.5t-38.5 64t-13.5 84.5v307h86v-294q0 -66 32 -101.5t88 -35.5q48 0 82 27.5t50 71.5v332h86v-500zM285 543q-33 0 -62.5 11t-51 32.5t-34 52.5t-11.5 71h58q-2 -56 28.5 -83t72.5 -27t72.5 27
t28.5 83h58q1 -40 -11.5 -71t-34 -52.5t-51 -32.5t-62.5 -11z" />
    <glyph glyph-name="uhungarumlaut" unicode="&#x171;" horiz-adv-x="579" 
d="M498 0h-86v63q-26 -38 -67.5 -55.5t-83.5 -17.5q-41 0 -75.5 14t-59.5 40.5t-38.5 64t-13.5 84.5v307h86v-294q0 -66 32 -101.5t88 -35.5q48 0 82 27.5t50 71.5v332h86v-500zM232 710h99l-91 -153h-63zM399 710h100l-92 -153h-62z" />
    <glyph glyph-name="umacron" unicode="&#x16b;" horiz-adv-x="579" 
d="M498 0h-86v63q-26 -38 -67.5 -55.5t-83.5 -17.5q-41 0 -75.5 14t-59.5 40.5t-38.5 64t-13.5 84.5v307h86v-294q0 -66 32 -101.5t88 -35.5q48 0 82 27.5t50 71.5v332h86v-500zM124 710h322v-69h-322v69z" />
    <glyph glyph-name="uogonek" unicode="&#x173;" horiz-adv-x="579" 
d="M498 0h-86v63q-26 -38 -67.5 -55.5t-83.5 -17.5q-41 0 -75.5 14t-59.5 40.5t-38.5 64t-13.5 84.5v307h86v-294q0 -66 32 -101.5t88 -35.5q48 0 82 27.5t50 71.5v332h86v-500zM434 -194q-48 0 -72 26.5t-24 62.5t22.5 59t51.5 46h86q-42 -26 -63 -46t-21 -45
q0 -17 12 -25.5t30 -8.5q10 0 22 2.5t20 7.5v-64q-13 -7 -28.5 -11t-35.5 -4z" />
    <glyph glyph-name="uring" unicode="&#x16f;" horiz-adv-x="579" 
d="M498 0h-86v63q-26 -38 -67.5 -55.5t-83.5 -17.5q-41 0 -75.5 14t-59.5 40.5t-38.5 64t-13.5 84.5v307h86v-294q0 -66 32 -101.5t88 -35.5q48 0 82 27.5t50 71.5v332h86v-500zM285 541q-25 0 -47.5 9.5t-39 26t-26 38.5t-9.5 47t9.5 47t26 38.5t39 26t47.5 9.5t47 -9.5
t38.5 -26t26 -38.5t9.5 -47t-9.5 -47t-26 -38.5t-38.5 -26t-47 -9.5zM285 592q28 0 48.5 20.5t20.5 49.5t-20.5 49.5t-48.5 20.5q-29 0 -50 -20.5t-21 -49.5t21 -49.5t50 -20.5z" />
    <glyph glyph-name="utilde" unicode="&#x169;" horiz-adv-x="579" 
d="M498 0h-86v63q-26 -38 -67.5 -55.5t-83.5 -17.5q-41 0 -75.5 14t-59.5 40.5t-38.5 64t-13.5 84.5v307h86v-294q0 -66 32 -101.5t88 -35.5q48 0 82 27.5t50 71.5v332h86v-500zM114 611q8 43 37 69t69 26q20 0 38 -7t34.5 -15t30.5 -15t26 -7q33 0 43 44h66l-3 -18
q-8 -43 -37 -69t-69 -26q-20 0 -38 7t-34.5 15t-30.5 15t-26 7q-33 0 -43 -44h-66z" />
    <glyph glyph-name="uni1EE5" unicode="&#x1ee5;" horiz-adv-x="579" 
d="M498 0h-86v63q-26 -38 -67.5 -55.5t-83.5 -17.5q-41 0 -75.5 14t-59.5 40.5t-38.5 64t-13.5 84.5v307h86v-294q0 -66 32 -101.5t88 -35.5q48 0 82 27.5t50 71.5v332h86v-500zM286 -190q-25 0 -42 17t-17 41t17 41.5t42 17.5q24 0 41 -17.5t17 -41.5t-17 -41t-41 -17z" />
    <glyph glyph-name="wacute" unicode="&#x1e83;" horiz-adv-x="736" 
d="M4 500h95l124 -314l145 324l145 -323l124 313h95l-210 -510l-154 334l-154 -334zM423 710h109l-125 -153h-72z" />
    <glyph glyph-name="wcircumflex" unicode="&#x175;" horiz-adv-x="736" 
d="M4 500h95l124 -314l145 324l145 -323l124 313h95l-210 -510l-154 334l-154 -334zM523 626v-78l-155 96l-155 -96v78l155 96z" />
    <glyph glyph-name="wdieresis" unicode="&#x1e85;" horiz-adv-x="736" 
d="M4 500h95l124 -314l145 324l145 -323l124 313h95l-210 -510l-154 334l-154 -334zM256 595q-25 0 -42 17t-17 41t17 41t42 17q24 0 41 -17t17 -41t-17 -41t-41 -17zM481 595q-24 0 -41.5 17t-17.5 41t17.5 41t41.5 17t41 -17t17 -41t-17 -41t-41 -17z" />
    <glyph glyph-name="wgrave" unicode="&#x1e81;" horiz-adv-x="736" 
d="M4 500h95l124 -314l145 324l145 -323l124 313h95l-210 -510l-154 334l-154 -334zM330 557l-125 153h109l88 -153h-72z" />
    <glyph glyph-name="ycircumflex" unicode="&#x177;" horiz-adv-x="546" 
d="M228 80l-223 420h97l174 -337l174 337h97l-362 -684h-99zM431 626v-78l-155 96l-155 -96v78l155 96z" />
    <glyph glyph-name="ygrave" unicode="&#x1ef3;" horiz-adv-x="546" 
d="M228 80l-223 420h97l174 -337l174 337h97l-362 -684h-99zM238 557l-125 153h109l88 -153h-72z" />
    <glyph glyph-name="uni0233" unicode="&#x233;" horiz-adv-x="546" 
d="M228 80l-223 420h97l174 -337l174 337h97l-362 -684h-99zM115 710h322v-69h-322v69z" />
    <glyph glyph-name="zacute" unicode="&#x17a;" horiz-adv-x="486" 
d="M308 421h-261v79h411l-292 -421h284v-79h-433zM307 710h109l-125 -153h-72z" />
    <glyph glyph-name="zcaron" unicode="&#x17e;" horiz-adv-x="486" 
d="M308 421h-261v79h411l-292 -421h284v-79h-433zM97 644v78l155 -96l155 96v-78l-155 -96z" />
    <glyph glyph-name="zdotaccent" unicode="&#x17c;" horiz-adv-x="486" 
d="M308 421h-261v79h411l-292 -421h284v-79h-433zM252 596q-25 0 -42 17t-17 41t17 41.5t42 17.5q24 0 41 -17.5t17 -41.5t-17 -41t-41 -17z" />
    <glyph glyph-name="ellipsis" unicode="&#x2026;" horiz-adv-x="721" 
d="M360 -8q-31 0 -52.5 22t-21.5 53q0 30 21.5 52.5t52.5 22.5t52.5 -22.5t21.5 -52.5q0 -31 -21.5 -53t-52.5 -22zM601 -8q-31 0 -52.5 22t-21.5 53q0 30 21.5 52.5t52.5 22.5t52.5 -22.5t21.5 -52.5q0 -31 -21.5 -53t-52.5 -22zM121 -8q-31 0 -52.5 22t-21.5 53
q0 30 21.5 52.5t52.5 22.5t52.5 -22.5t21.5 -52.5q0 -31 -21.5 -53t-52.5 -22z" />
    <glyph glyph-name="endash" unicode="&#x2013;" horiz-adv-x="565" 
d="M65 323h434v-86h-434v86z" />
    <glyph glyph-name="emdash" unicode="&#x2014;" horiz-adv-x="635" 
d="M65 323h505v-86h-505v86z" />
    <glyph glyph-name="guilsinglleft" unicode="&#x2039;" horiz-adv-x="303" 
d="M252 54l-58 -38l-152 234l152 234l58 -38l-114 -196z" />
    <glyph glyph-name="guilsinglright" unicode="&#x203a;" horiz-adv-x="303" 
d="M165 250l-114 196l58 38l152 -234l-152 -234l-58 38z" />
    <glyph glyph-name="quoteleft" unicode="&#x2018;" horiz-adv-x="234" 
d="M157 444h-115l89 266h49z" />
    <glyph glyph-name="quoteright" unicode="&#x2019;" horiz-adv-x="223" 
d="M82 710h115l-89 -266h-49z" />
    <glyph glyph-name="quotedblleft" unicode="&#x201c;" horiz-adv-x="408" 
d="M157 444h-115l89 266h49zM331 444h-115l89 266h49z" />
    <glyph glyph-name="quotedblright" unicode="&#x201d;" horiz-adv-x="398" 
d="M82 710h115l-89 -266h-49zM256 710h115l-89 -266h-49z" />
    <glyph glyph-name="quotesinglbase" unicode="&#x201a;" horiz-adv-x="249" 
d="M73 124h115l-88 -267h-50z" />
    <glyph glyph-name="quotedblbase" unicode="&#x201e;" horiz-adv-x="424" 
d="M73 124h115l-88 -267h-50zM247 124h115l-88 -267h-50z" />
    <glyph glyph-name="bullet" unicode="&#x2022;" horiz-adv-x="419" 
d="M209 166q-28 0 -52.5 10.5t-43 29t-29.5 43.5t-11 53t11 53t29.5 43.5t43 29t52.5 10.5t53 -10.5t43.5 -29t29.5 -43.5t11 -53t-11 -53t-29.5 -43.5t-43.5 -29t-53 -10.5z" />
    <glyph glyph-name="minus" unicode="&#x2212;" horiz-adv-x="558" 
d="M68 328h423v-77h-423v77z" />
    <glyph glyph-name="Euro" unicode="&#x20ac;" horiz-adv-x="721" 
d="M33 404l26 55h99q17 59 51 107.5t80.5 83t102.5 53.5t117 19q44 0 83 -6.5t74 -20.5v-92q-33 16 -70 25.5t-85 9.5q-45 0 -86.5 -12.5t-76 -36t-60.5 -56.5t-41 -74h373l-25 -55h-362q-3 -24 -3 -49t3 -47h316l-23 -54h-280q15 -42 41 -75.5t60.5 -57.5t76 -36.5
t87.5 -12.5q48 0 85 9.5t70 25.5v-92q-35 -14 -74 -20.5t-83 -6.5q-61 0 -117.5 19t-103 54t-81 84t-50.5 109h-124l26 54h88q-3 22 -3 47t3 49h-114z" />
    <glyph glyph-name="uniFB01" unicode="&#xfb01;" horiz-adv-x="615" 
d="M123 421h-106v79h106v66q0 39 11.5 66.5t32 44.5t48 25t60.5 8h79v-80h-65q-39 0 -59.5 -14t-20.5 -58v-58h145v-79h-145v-421h-86v421zM492 603q-26 0 -44 18t-18 43q0 26 18 43.5t44 17.5t43.5 -17.5t17.5 -43.5q0 -25 -17.5 -43t-43.5 -18zM448 500h86v-500h-86v500z
" />
    <glyph glyph-name="uniFB02" unicode="&#xfb02;" horiz-adv-x="615" 
d="M123 421h-106v79h106v66q0 39 11.5 66.5t32 44.5t48 25t60.5 8h79v-80h-65q-39 0 -59.5 -14t-20.5 -58v-58h145v-79h-145v-421h-86v421zM448 710h86v-710h-86v710z" />
    <glyph glyph-name="glyph328" horiz-adv-x="249" 
d="M125 603q-26 0 -44 18t-18 43q0 26 18 43.5t44 17.5t43.5 -17.5t17.5 -43.5q0 -25 -17.5 -43t-43.5 -18z" />
    <glyph glyph-name="breve" unicode="&#x2d8;" 
d="M0 543q-33 0 -62.5 11t-51 32.5t-34 52.5t-11.5 71h58q-2 -56 28.5 -83t72.5 -27t72.5 27t28.5 83h58q1 -40 -11.5 -71t-34 -52.5t-51 -32.5t-62.5 -11z" />
    <glyph glyph-name="caron" unicode="&#x2c7;" 
d="M-155 644v78l155 -96l155 96v-78l-155 -96z" />
    <glyph glyph-name="circumflex" unicode="&#x2c6;" 
d="M155 626v-78l-155 96l-155 -96v78l155 96z" />
    <glyph glyph-name="dotaccent" unicode="&#x2d9;" 
d="M0 596q-25 0 -42 17t-17 41t17 41.5t42 17.5q24 0 41 -17.5t17 -41.5t-17 -41t-41 -17z" />
    <glyph glyph-name="glyph333" 
d="M0 -58q-25 0 -42 17t-17 41t17 41.5t42 17.5q24 0 41 -17.5t17 -41.5t-17 -41t-41 -17z" />
    <glyph glyph-name="glyph334" 
d="M0 -190q-25 0 -42 17t-17 41t17 41.5t42 17.5q24 0 41 -17.5t17 -41.5t-17 -41t-41 -17z" />
    <glyph glyph-name="hungarumlaut" unicode="&#x2dd;" 
d="M-106 710h99l-91 -153h-63zM61 710h100l-92 -153h-62z" />
    <glyph glyph-name="glyph336" 
d="M-74 -273l24 197h99l-72 -197h-51z" />
    <glyph glyph-name="ogonek" unicode="&#x2db;" 
d="M8 -194q-48 0 -72 26.5t-24 62.5t22.5 59t51.5 46h86q-42 -26 -63 -46t-21 -45q0 -17 12 -25.5t30 -8.5q10 0 22 2.5t20 7.5v-64q-13 -7 -28.5 -11t-35.5 -4z" />
    <glyph glyph-name="ring" unicode="&#x2da;" 
d="M1 541q-25 0 -47.5 9.5t-39 26t-26 38.5t-9.5 47t9.5 47t26 38.5t39 26t47.5 9.5t47 -9.5t38.5 -26t26 -38.5t9.5 -47t-9.5 -47t-26 -38.5t-38.5 -26t-47 -9.5zM1 592q28 0 48.5 20.5t20.5 49.5t-20.5 49.5t-48.5 20.5q-29 0 -50 -20.5t-21 -49.5t21 -49.5t50 -20.5z" />
    <glyph glyph-name="tilde" unicode="&#x2dc;" 
d="M-171 611q8 43 37 69t69 26q20 0 38 -7t34.5 -15t30.5 -15t26 -7q33 0 43 44h66l-3 -18q-8 -43 -37 -69t-69 -26q-20 0 -38 7t-34.5 15t-30.5 15t-26 7q-33 0 -43 -44h-66z" />
    <glyph glyph-name="glyph340" 
d="M-31 710h86l-50 -165h-60z" />
    <glyph glyph-name="glyph341" 
d="M-98 596q-26 0 -43.5 17.5t-17.5 43.5q0 25 17.5 42.5t43.5 17.5q25 0 43 -17.5t18 -42.5q0 -26 -18 -43.5t-43 -17.5zM98 596q-26 0 -43.5 17.5t-17.5 43.5q0 25 17.5 42.5t43.5 17.5q25 0 43 -17.5t18 -42.5q0 -26 -18 -43.5t-43 -17.5z" />
    <glyph glyph-name="glyph342" 
d="M-215 -10l-40 40l471 480l39 -39z" />
    <glyph glyph-name="glyph343" 
d="M-161 577v68h323v-68h-323z" />
    <glyph glyph-name="glyph344" 
d="M-161 577v68h323v-68h-323z" />
    <glyph glyph-name="glyph345" 
d="M-122 254v78l244 156v-77z" />
    <glyph glyph-name="glyph346" 
d="M-16 929h109l-114 -159h-73z" />
    <glyph glyph-name="glyph347" 
d="M0 759q-33 0 -62 11t-50.5 32t-34 50.5t-12.5 65.5h58q0 -49 29.5 -75t71.5 -26t71.5 26t29.5 75h58q0 -36 -12.5 -65.5t-34 -50.5t-50.5 -32t-62 -11z" />
    <glyph glyph-name="glyph348" 
d="M-166 848v75l166 -87l166 87v-75l-166 -87z" />
    <glyph glyph-name="glyph349" 
d="M-17 -194q-19 0 -41 3.5t-41 11.5v54q17 -8 37.5 -12t38.5 -4q20 0 38.5 5.5t18.5 22.5q0 11 -11 16.5t-28 5.5q-14 0 -25 -2.5t-21 -6.5l-31 22l49 81h55l-32 -52q16 7 38 7q32 0 54 -18t22 -49q0 -42 -33.5 -63.5t-87.5 -21.5z" />
    <glyph glyph-name="glyph350" 
d="M-166 836l166 87l166 -87v-75l-166 87l-166 -87v75z" />
    <glyph glyph-name="glyph351" 
d="M-112 785q-25 0 -42 17t-17 41t17 41.5t42 17.5q24 0 41 -17.5t17 -41.5t-17 -41t-41 -17zM113 785q-24 0 -41.5 17t-17.5 41t17.5 41.5t41.5 17.5t41 -17.5t17 -41.5t-17 -41t-41 -17z" />
    <glyph glyph-name="glyph352" 
d="M0 785q-25 0 -42 17t-17 41t17 41.5t42 17.5q24 0 41 -17.5t17 -41.5t-17 -41t-41 -17z" />
    <glyph glyph-name="glyph353" 
d="M0 -58q-25 0 -42 17t-17 41t17 41.5t42 17.5q24 0 41 -17.5t17 -41.5t-17 -41t-41 -17z" />
    <glyph glyph-name="glyph354" 
d="M0 -190q-25 0 -42 17t-17 41t17 41.5t42 17.5q24 0 41 -17.5t17 -41.5t-17 -41t-41 -17z" />
    <glyph glyph-name="glyph355" 
d="M-74 -273l24 197h99l-72 -197h-51z" />
    <glyph glyph-name="glyph356" 
d="M21 770l-115 159h109l78 -159h-72z" />
    <glyph glyph-name="glyph357" 
d="M-104 929h99l-95 -159h-62zM63 929h99l-95 -159h-62z" />
    <glyph glyph-name="glyph358" 
d="M-161 878h322v-73h-322v73z" />
    <glyph glyph-name="glyph359" 
d="M6 -194q-42 0 -69.5 24t-27.5 62q0 37 22 60.5t52 47.5h92q-42 -26 -63 -45t-21 -44q0 -17 11 -24t25 -7q31 0 48 11v-71q-13 -6 -28.5 -10t-40.5 -4z" />
    <glyph glyph-name="glyph360" 
d="M0 753q-25 0 -47 9.5t-38.5 26t-26 38t-9.5 46.5t9.5 46.5t26 38t38.5 26t47 9.5t47 -9.5t38.5 -26t26.5 -38t10 -46.5t-10 -46.5t-26.5 -38t-38.5 -26t-47 -9.5zM0 804q29 0 50 20t21 49t-21 49.5t-50 20.5t-49 -20.5t-20 -49.5t20 -49t49 -20z" />
    <glyph glyph-name="glyph361" 
d="M-170 804q8 43 37 69t69 26q19 0 37.5 -7t34.5 -15t30.5 -15t26.5 -7q33 0 43 44h66l-4 -19q-8 -42 -36.5 -68t-69.5 -26q-20 0 -38 7t-34 15l-30 15t-26 7q-32 0 -44 -44h-65z" />
    <glyph glyph-name="glyph362" 
d="M-163 401h326v-82h-326v82z" />
    <glyph glyph-name="glyph363" 
d="M-283 -20l-56 52l623 698l55 -51z" />
    <glyph glyph-name="glyph364" 
d="M-163 213v84l325 210v-84z" />
    <glyph glyph-name="glyph365" 
d="M-361 605h721v-72h-721v72z" />
    </font>
</defs>
</svg>
